<svg xmlns="http://www.w3.org/2000/svg" width="17.5" height="14.72" viewBox="0 0 17.5 14.72">
  <path id="Path_5" data-name="Path 5" d="M6.729,7.458H7.947L9.773,15.7a2.617,2.617,0,0,0-1.489,2.42,2.492,2.492,0,0,0,2.356,2.6h9.669a.729.729,0,1,0,0-1.458H10.64a1.06,1.06,0,0,1-.9-1.146,1.06,1.06,0,0,1,.9-1.147h9.669a.729.729,0,0,0,.686-.482l2.462-6.834a.729.729,0,0,0-.686-.976H9.711l-.466-2.1A.729.729,0,0,0,8.532,6h-1.8a.729.729,0,0,0,0,1.458Zm15,2.676L19.8,15.51H11.225l-1.191-5.375h11.7Z" transform="translate(-6 -6)" fill="#fbb03b"/>
</svg>
