<!-- Generated by IcoMoon.io -->
<svg version="1.1" xmlns="http://www.w3.org/2000/svg" width="32" height="32" viewBox="0 0 32 32">
<title>close</title>
<path d="M31.318 0.679c-0.419-0.421-1-0.681-1.641-0.681s-1.221 0.26-1.641 0.681l-12.036 12.036-12.034-12.036c-0.42-0.42-1.001-0.68-1.642-0.68-1.283 0-2.322 1.040-2.322 2.322 0 0.641 0.26 1.222 0.68 1.642l12.036 12.036-12.036 12.034c-0.389 0.414-0.628 0.973-0.628 1.588 0 1.282 1.039 2.322 2.322 2.322 0.618 0 1.18-0.242 1.596-0.636l-0.001 0.001 12.029-12.039 12.036 12.036c0.425 0.455 1.028 0.738 1.698 0.738 1.282 0 2.322-1.039 2.322-2.322 0-0.661-0.276-1.257-0.72-1.68l-0.001-0.001-12.063-12.044 12.036-12.036c0.421-0.421 0.681-1.003 0.681-1.646 0-0.638-0.256-1.216-0.672-1.636l0 0z"></path>
</svg>
