<!-- Generated by IcoMoon.io -->
<svg version="1.1" xmlns="http://www.w3.org/2000/svg" width="17" height="32" viewBox="0 0 17 32">
<title>facebook-logo</title>
<path fill="#c5c5c5" d="M16.65 0h-4.15c-0.123-0.007-0.267-0.012-0.412-0.012-4.025 0-7.288 3.263-7.288 7.288 0 0.211 0.009 0.42 0.027 0.626l-0.002-0.027v3.631h-4.172c-0.36 0-0.652 0.292-0.652 0.652v0 5.262c0 0.36 0.292 0.652 0.652 0.652v0h4.172v13.276c0 0.36 0.292 0.652 0.652 0.652v0h5.445c0.36 0 0.652-0.292 0.652-0.652v0-13.276h4.878c0.36 0 0.652-0.292 0.652-0.652v0-5.26c-0.001-0.36-0.292-0.651-0.652-0.652h-4.876v-3.081c0-1.478 0.353-2.231 2.279-2.231h2.796c0 0 0 0 0 0 0.36 0 0.652-0.292 0.652-0.652 0-0.001 0-0.003 0-0.004v0-4.881c0-0.002 0-0.005 0-0.007 0-0.36-0.292-0.652-0.652-0.652 0 0-0 0-0 0v0z"></path>
</svg>
