<!-- Generated by IcoMoon.io -->
<svg version="1.1" xmlns="http://www.w3.org/2000/svg" width="17" height="32" viewBox="0 0 17 32">
<title>Group-9</title>
<path fill="#fff" d="M16.65 0h-4.15c-0.122-0.007-0.265-0.011-0.409-0.011-4.026 0-7.29 3.264-7.29 7.29 0 0.21 0.009 0.418 0.026 0.623l-0.002-0.027v3.632h-4.173c-0.36 0-0.652 0.292-0.652 0.652v0 5.261c0 0.36 0.292 0.652 0.652 0.652v0h4.172v13.273c0 0.36 0.292 0.652 0.652 0.652h5.445c0.36 0 0.652-0.292 0.652-0.652v0-13.273h4.87c0.36 0 0.652-0.292 0.652-0.652v0-5.261c0-0.36-0.292-0.652-0.652-0.652v0h-4.87v-3.078c0-1.48 0.352-2.231 2.28-2.231h2.796c0.36 0 0.652-0.292 0.652-0.652v0-4.886c0-0.002 0-0.005 0-0.007 0-0.36-0.292-0.652-0.652-0.652 0 0-0 0-0 0v0z"></path>
</svg>
