<!-- Generated by IcoMoon.io -->
<svg version="1.1" xmlns="http://www.w3.org/2000/svg" width="39" height="32" viewBox="0 0 39 32">
<title>Group-25</title>
<path fill="#c5c5c5" d="M39.394 3.785c-1.351 0.617-2.919 1.067-4.563 1.27l-0.078 0.008c1.67-1.013 2.926-2.566 3.537-4.413l0.016-0.057c-1.478 0.891-3.198 1.572-5.030 1.945l-0.105 0.018c-1.479-1.565-3.568-2.54-5.886-2.54-4.468 0-8.090 3.622-8.090 8.090 0 0.643 0.075 1.269 0.217 1.869l-0.011-0.055c-6.732-0.347-12.653-3.545-16.624-8.4l-0.032-0.041c-0.686 1.163-1.091 2.563-1.091 4.058 0 2.791 1.414 5.253 3.564 6.707l0.029 0.018c-1.35-0.046-2.604-0.416-3.7-1.034l0.040 0.021v0.1c0 3.898 2.757 7.152 6.428 7.919l0.053 0.009c-0.638 0.179-1.371 0.283-2.129 0.283h-0c-0.539-0-1.065-0.055-1.572-0.16l0.050 0.009c1.063 3.235 4.027 5.543 7.539 5.612l0.008 0c-2.727 2.154-6.214 3.455-10.005 3.455-0.011 0-0.021 0-0.032-0h0.002c-0.68-0.001-1.351-0.041-2.010-0.118l0.081 0.008c3.494 2.28 7.771 3.636 12.366 3.636 0.007 0 0.014 0 0.022 0h-0.001c0.048 0 0.104 0.001 0.16 0.001 12.61 0 22.833-10.223 22.833-22.833 0-0.056-0-0.113-0.001-0.169l0 0.009-0.028-1.045c1.597-1.15 2.94-2.535 4.008-4.12l0.036-0.057z"></path>
</svg>
