<!-- Generated by IcoMoon.io -->
<svg version="1.1" xmlns="http://www.w3.org/2000/svg" width="38" height="32" viewBox="0 0 38 32">
<title>home-cart</title>
<path fill="#fff" d="M1.586 3.17h2.647l3.969 17.907c-1.93 0.937-3.237 2.882-3.237 5.133 0 0.045 0.001 0.090 0.002 0.135l-0-0.007c-0.004 0.076-0.006 0.164-0.006 0.253 0 2.89 2.263 5.252 5.114 5.409l0.014 0.001h21.017c0.016 0.001 0.034 0.001 0.052 0.001 0.876 0 1.586-0.71 1.586-1.586s-0.71-1.586-1.586-1.586c-0.018 0-0.037 0-0.055 0.001l0.003-0h-21.019c-1.12-0.169-1.969-1.125-1.969-2.279 0-0.075 0.004-0.149 0.011-0.222l-0.001 0.009c-0.006-0.065-0.010-0.14-0.010-0.216 0-1.151 0.845-2.105 1.948-2.276l0.013-0.002h21.028c0 0 0 0 0.001 0 0.683 0 1.265-0.432 1.488-1.037l0.004-0.011 5.361-14.856c0.059-0.16 0.093-0.344 0.093-0.536 0-0.876-0.71-1.586-1.586-1.586h-28.4l-1.013-4.576c-0.162-0.716-0.793-1.243-1.547-1.243-0 0-0.001 0-0.001 0h-3.92c-0.853 0.029-1.533 0.728-1.533 1.585s0.68 1.556 1.531 1.585l0.003 0zM34.203 8.992l-4.211 11.686h-18.635l-2.594-11.686h25.439z"></path>
</svg>
