<!-- Generated by IcoMoon.io -->
<svg version="1.1" xmlns="http://www.w3.org/2000/svg" width="32" height="32" viewBox="0 0 32 32">
<title>instagram-1</title>
<path fill="#c5c5c5" d="M22.468 0h-12.935c-5.262 0.006-9.526 4.27-9.532 9.532v12.934c0.005 5.263 4.27 9.528 9.532 9.534h12.934c5.263-0.005 9.528-4.27 9.534-9.532v-12.936c-0.006-5.262-4.27-9.526-9.532-9.532h-0.001zM28.782 22.468c0 3.487-2.827 6.314-6.314 6.314v0h-12.935c-3.487 0-6.314-2.827-6.314-6.314v0-12.935c0-3.487 2.827-6.314 6.314-6.314v0h12.934c0.001 0 0.001 0 0.002 0 3.487 0 6.314 2.827 6.314 6.314v0 12.934z"></path>
<path fill="#c5c5c5" d="M16 7.724c-4.571 0-8.276 3.705-8.276 8.276s3.705 8.276 8.276 8.276c4.571 0 8.276-3.705 8.276-8.276v0c-0.005-4.569-3.707-8.271-8.276-8.276h-0zM16 21.058c-2.793 0-5.058-2.264-5.058-5.058s2.264-5.058 5.058-5.058c2.793 0 5.058 2.264 5.058 5.058v0c0 2.793-2.264 5.058-5.058 5.058v0z"></path>
<path fill="#c5c5c5" d="M26.277 7.786c0 1.096-0.888 1.984-1.984 1.984s-1.984-0.888-1.984-1.984c0-1.096 0.888-1.984 1.984-1.984s1.984 0.888 1.984 1.984z"></path>
</svg>
