<!-- Generated by IcoMoon.io -->
<svg version="1.1" xmlns="http://www.w3.org/2000/svg" width="34" height="32" viewBox="0 0 34 32">
<title>linkedin-logo</title>
<path fill="#c5c5c5" d="M33.489 19.62v12.38h-7.177v-11.551c0-2.902-1.038-4.883-3.637-4.883-1.693 0.010-3.131 1.090-3.673 2.598l-0.009 0.027c-0.154 0.456-0.244 0.981-0.244 1.527 0 0.079 0.002 0.157 0.006 0.234l-0-0.011v12.058h-7.179s0.097-19.564 0-21.592h7.179v3.061l-0.047 0.069h0.047v-0.069c1.254-2.151 3.55-3.574 6.179-3.574 0.103 0 0.205 0.002 0.306 0.006l-0.015-0.001c4.722 0 8.264 3.078 8.264 9.719zM4.062 0c-0.098-0.009-0.212-0.014-0.327-0.014-2.067 0-3.742 1.675-3.742 3.742s1.675 3.742 3.742 3.742c0.082 0 0.163-0.003 0.243-0.008l-0.011 0.001h0.047c0.092 0.008 0.198 0.013 0.306 0.013 2.067 0 3.742-1.675 3.742-3.742s-1.675-3.742-3.742-3.742c-0.091 0-0.181 0.003-0.271 0.010l0.012-0.001zM0.43 32h7.175v-21.598h-7.175z"></path>
</svg>
