<!-- Generated by IcoMoon.io -->
<svg version="1.1" xmlns="http://www.w3.org/2000/svg" width="44" height="32" viewBox="0 0 44 32">
<title>noun_Fast-Delivery_1212438</title>
<path d="M24.791 0h-20.886c-2.155 0.003-3.902 1.749-3.905 3.904v20.003c0.003 2.155 1.749 3.902 3.904 3.905h2.067c0.546 2.413 2.673 4.188 5.214 4.188s4.667-1.775 5.207-4.153l0.007-0.036h13.778c0.546 2.413 2.673 4.188 5.214 4.188s4.667-1.775 5.207-4.153l0.007-0.036h3.683v-11.517c0-0 0-0.001 0-0.001 0-1.147-0.311-2.221-0.852-3.143l0.016 0.029-2.298-3.974c-0.856-1.44-2.404-2.389-4.173-2.389-0.011 0-0.022 0-0.033 0h-8.268v-2.898c0-0.003 0-0.006 0-0.010 0-2.151-1.738-3.897-3.886-3.909h-0.001zM2.298 23.908v-20.003c0-0.889 0.72-1.609 1.609-1.609v0h20.884c0.889 0 1.609 0.72 1.609 1.609v0 21.597h-9.989c-0.546-2.413-2.673-4.188-5.214-4.188s-4.667 1.775-5.207 4.153l-0.007 0.036h-2.067c-0.001 0-0.003 0-0.005 0-0.883 0-1.601-0.712-1.609-1.594v-0.001zM11.19 29.712c-1.682 0-3.046-1.364-3.046-3.046s1.364-3.046 3.046-3.046c1.682 0 3.046 1.364 3.046 3.046 0 0.002 0 0.003 0 0.005v-0c-0.003 1.68-1.365 3.041-3.046 3.041 0 0 0 0 0 0v0zM35.4 29.712c-1.682 0-3.046-1.364-3.046-3.046s1.364-3.046 3.046-3.046c1.682 0 3.046 1.364 3.046 3.046v0c0 1.682-1.364 3.046-3.046 3.046v0zM40.616 25.517c-0.546-2.413-2.673-4.188-5.214-4.188s-4.667 1.775-5.207 4.153l-0.007 0.036h-1.493v-9.379h13.267v9.379zM36.95 9.113c0.001 0 0.003 0 0.004 0 0.924 0 1.733 0.495 2.177 1.233l0.006 0.011 2.022 3.484h-12.464v-4.731z"></path>
<path d="M14.475 20.207c0.001 0 0.002 0 0.002 0 4.265 0 7.723-3.458 7.723-7.723s-3.458-7.723-7.723-7.723c-4.265 0-7.722 3.456-7.723 7.721v0c0 0.001 0 0.002 0 0.002 0 4.265 3.456 7.722 7.721 7.723h0zM14.475 7.061c0.004 0 0.010-0 0.015-0 2.998 0 5.428 2.43 5.428 5.428s-2.43 5.428-5.428 5.428c-2.998 0-5.428-2.43-5.428-5.428 0-0.005 0-0.010 0-0.016v0.001c0.007-2.987 2.426-5.407 5.412-5.415h0.001z"></path>
<path d="M14.406 13.85h2.362c0.635 0 1.149-0.514 1.149-1.149s-0.514-1.149-1.149-1.149h-1.213v-1.892c0-0.635-0.514-1.149-1.149-1.149s-1.149 0.514-1.149 1.149v0 3.036c0 0.001 0 0.003 0 0.005 0 0.635 0.514 1.149 1.149 1.149 0 0 0 0 0 0v0z"></path>
</svg>
