<!-- Generated by IcoMoon.io -->
<svg version="1.1" xmlns="http://www.w3.org/2000/svg" width="32" height="32" viewBox="0 0 32 32">
<title>noun_cart_2102832-4</title>
<path fill="#fff" d="M1.333 2.666h2.227l3.339 15.071c-1.624 0.788-2.724 2.425-2.724 4.319 0 0.037 0 0.075 0.001 0.112l-0-0.006c-0.003 0.061-0.005 0.132-0.005 0.204 0 2.431 1.903 4.417 4.301 4.55l0.012 0.001h17.68c0.736 0 1.333-0.597 1.333-1.333s-0.597-1.333-1.333-1.333h-17.68c-0.941-0.143-1.654-0.947-1.654-1.917 0-0.063 0.003-0.125 0.009-0.186l-0.001 0.008c-0.005-0.054-0.008-0.117-0.008-0.18 0-0.97 0.713-1.774 1.643-1.916l0.011-0.001h17.68c0 0 0 0 0 0 0.574 0 1.064-0.363 1.251-0.872l0.003-0.009 4.502-12.496c0.050-0.134 0.079-0.29 0.079-0.452 0-0.736-0.597-1.333-1.333-1.333-0 0-0 0-0 0h-23.881l-0.852-3.84c-0.133-0.607-0.666-1.055-1.304-1.055 0 0-0 0-0 0h-3.291c-0.736 0-1.333 0.597-1.333 1.333s0.597 1.333 1.333 1.333v0zM28.762 7.559l-3.527 9.83h-15.68l-2.178-9.829h21.394z"></path>
<path fill="#fff" d="M9.563 29.334c-0.736 0-1.333 0.597-1.333 1.333s0.597 1.333 1.333 1.333h1.693c0.736 0 1.333-0.597 1.333-1.333s-0.597-1.333-1.333-1.333v0z"></path>
<path fill="#fff" d="M21.864 29.334c-0.736 0-1.333 0.597-1.333 1.333s0.597 1.333 1.333 1.333h1.693c0.736 0 1.333-0.597 1.333-1.333s-0.597-1.333-1.333-1.333v0z"></path>
</svg>
