<!-- Generated by IcoMoon.io -->
<svg version="1.1" xmlns="http://www.w3.org/2000/svg" width="32" height="32" viewBox="0 0 32 32">
<title>noun_materials_308312</title>
<path d="M10.097 20.685c0 0.526-0.427 0.953-0.953 0.953s-0.953-0.427-0.953-0.953c0-0.526 0.427-0.953 0.953-0.953s0.953 0.427 0.953 0.953z"></path>
<path d="M31.63 0h-21.359v10.642h-10.271v21.358h21.358v-10.642h10.272v-21.358zM29.968 4.551l-8.609 8.609v-2.517h-3.166l8.905-8.905-0.074-0.074h2.944v2.888zM19.695 21.304c-1.427-0.24-3.642-0.51-4.439 2.174-0.667 1.683-1.51 3.138-2.535 4.443l0.029-0.038c-0.553 0.713-1.058 1.517-1.48 2.371l-0.037 0.083h-2.633c-0-0.008-0-0.017-0-0.026 0-1.322 0.449-2.539 1.202-3.507l-0.010 0.013c0.361-0.407 0.774-0.756 1.23-1.042l0.024-0.014c1.546-0.897 2.621-2.459 2.834-4.285l0.003-0.027c0.080-0.432 0.126-0.928 0.126-1.436 0-1.185-0.25-2.312-0.701-3.33l0.021 0.053c-0.426-0.971-0.673-2.102-0.673-3.291 0-0.402 0.028-0.797 0.083-1.184l-0.005 0.044h2.435c0.068 0.34 0.127 0.691 0.185 1.062 0.349 2.101 0.783 4.715 3.575 6.151 0.156 0.080 0.258 0.136 0.322 0.174 0.121 0.126 0.27 0.225 0.436 0.288l0.008 0.003v1.322zM6.184 22.781c-0.026-0.234-0.040-0.505-0.040-0.78 0-0.622 0.074-1.226 0.215-1.805l-0.011 0.052c0.254-0.877 0.644-1.641 1.15-2.312l-0.013 0.018c1.153-1.558 1.846-3.518 1.846-5.64 0-0.004 0-0.008 0-0.012v0.001h1.732c-0.043 0.348-0.068 0.75-0.068 1.159 0 1.388 0.284 2.71 0.797 3.911l-0.025-0.065c0.366 0.799 0.579 1.734 0.579 2.718 0 0.412-0.037 0.815-0.109 1.206l0.006-0.041c-0.144 1.389-0.964 2.56-2.121 3.189l-0.022 0.011c-0.617 0.39-1.146 0.849-1.598 1.375l-0.008 0.009c-0.971 1.236-1.557 2.814-1.557 4.529 0 0.011 0 0.021 0 0.032v-0.002h-1.737c0.646-1.893 1.019-4.074 1.019-6.342 0-0.425-0.013-0.847-0.039-1.266l0.003 0.057zM19.695 18.041h-0.006c-2.049-1.054-2.363-2.945-2.695-4.946-0.043-0.261-0.092-0.526-0.138-0.79h2.839zM11.934 9.168l7.507-7.507h5.375l-8.979 8.979h-3.904zM17.091 1.662l-5.156 5.156v-5.156zM4.246 12.305c-0.445 1.66-0.974 3.085-1.619 4.445l0.067-0.158c-0.339 0.805-0.692 1.646-1.031 2.517v-6.805zM1.662 24.994c0.617-2.938 1.501-5.53 2.655-7.97l-0.092 0.216c0.689-1.41 1.276-3.056 1.675-4.773l0.031-0.16h1.735c0 0.002 0 0.005 0 0.008 0 1.78-0.589 3.423-1.584 4.743l0.015-0.020c-0.593 0.797-1.060 1.729-1.349 2.737l-0.015 0.061c-0.164 0.648-0.258 1.393-0.258 2.159 0 0.308 0.015 0.611 0.045 0.911l-0.003-0.038c0.019 0.323 0.030 0.7 0.030 1.079 0 2.29-0.397 4.488-1.126 6.527l0.042-0.135h-1.801v-5.346zM13.101 30.337c0.285-0.462 0.682-1.032 1.010-1.5 1.1-1.403 2.024-3.017 2.694-4.757l0.043-0.128c0.374-1.26 1.047-1.269 2.735-0.979l0.111 0.018v7.346zM21.358 15.51l8.609-8.609v5.604l-7.19 7.19h-1.419v-4.185zM25.128 19.695l4.839-4.839v4.839z"></path>
</svg>
