<!-- Generated by IcoMoon.io -->
<svg version="1.1" xmlns="http://www.w3.org/2000/svg" width="51" height="32" viewBox="0 0 51 32">
<title>noun_delivery_2057282</title>
<path d="M50.428 17.672l-9.218-7.579c-0.1-0.084-0.213-0.156-0.336-0.211l-0.009-0.004c-0.14-0.058-0.303-0.095-0.473-0.102l-0.003-0h-6.11v-8.338c0-0.794-0.644-1.438-1.438-1.438v0h-31.403c-0.794 0-1.438 0.644-1.438 1.438v0 24.934c0 0.794 0.644 1.438 1.438 1.438v0h4.773c0.705 2.437 2.916 4.189 5.536 4.189s4.832-1.752 5.526-4.149l0.010-0.041h17.686c0.705 2.437 2.916 4.189 5.536 4.189s4.832-1.752 5.526-4.149l0.010-0.041h3.479c0.794 0 1.438-0.644 1.438-1.438v0-7.593c-0.003-0.446-0.209-0.843-0.53-1.105l-0.003-0.002zM38.925 12.627v4.012h-4.643v-4.012zM2.97 2.862h28.433v22.057h-14.076c-0.071-0.25-0.145-0.455-0.229-0.654l0.014 0.037c0.001-0.009 0.002-0.020 0.002-0.031 0-0.083-0.033-0.157-0.087-0.212l0 0c-0.151-0.349-0.315-0.647-0.503-0.927l0.013 0.021-0.159-0.201c-0.159-0.218-0.32-0.41-0.492-0.591l0.002 0.002-0.283-0.243c-0.156-0.141-0.325-0.278-0.501-0.404l-0.017-0.012-0.331-0.215c-0.156-0.101-0.341-0.207-0.533-0.302l-0.033-0.015-0.36-0.159c-0.184-0.074-0.415-0.148-0.651-0.207l-0.040-0.008-0.331-0.085c-0.324-0.069-0.697-0.109-1.079-0.109s-0.754 0.040-1.114 0.115l0.035-0.006-0.331 0.085c-0.276 0.068-0.506 0.141-0.73 0.229l0.039-0.013-0.36 0.159c-0.234 0.109-0.427 0.215-0.613 0.331l0.024-0.014-0.317 0.215c-0.198 0.142-0.372 0.284-0.537 0.434l0.004-0.004-0.258 0.229c-0.186 0.196-0.361 0.407-0.52 0.631l-0.012 0.018-0.116 0.144c-0.18 0.264-0.349 0.566-0.489 0.883l-0.015 0.037c0 0.001 0 0.002 0 0.003 0 0.080-0.027 0.154-0.071 0.213l0.001-0.001c-0.071 0.166-0.144 0.376-0.205 0.591l-0.010 0.041h-3.247zM11.843 29.192c1.638-0.029 2.956-1.364 2.956-3.006 0-1.661-1.346-3.007-3.007-3.007s-3.007 1.346-3.007 3.007c0 1.643 1.317 2.978 2.953 3.006l0.003 0zM40.601 29.192c1.638-0.029 2.956-1.364 2.956-3.006 0-1.661-1.346-3.007-3.007-3.007s-3.007 1.346-3.007 3.007c0 1.643 1.317 2.978 2.953 3.006l0.003 0zM48.185 24.905h-2.101c-0.071-0.25-0.145-0.455-0.229-0.654l0.014 0.037c0.001-0.009 0.002-0.020 0.002-0.031 0-0.083-0.033-0.157-0.087-0.212l0 0c-0.151-0.349-0.315-0.647-0.503-0.927l0.013 0.021-0.159-0.201c-0.159-0.218-0.32-0.41-0.492-0.591l0.002 0.002-0.283-0.243c-0.156-0.141-0.325-0.278-0.501-0.404l-0.017-0.012-0.331-0.215c-0.156-0.101-0.341-0.207-0.533-0.302l-0.033-0.015-0.36-0.159c-0.184-0.074-0.415-0.148-0.651-0.207l-0.040-0.008-0.331-0.085c-0.324-0.069-0.697-0.109-1.079-0.109s-0.754 0.040-1.114 0.115l0.035-0.006-0.331 0.085c-0.276 0.068-0.506 0.141-0.73 0.229l0.039-0.013-0.36 0.159c-0.234 0.109-0.427 0.215-0.613 0.331l0.024-0.014-0.317 0.215c-0.198 0.142-0.372 0.284-0.537 0.434l0.004-0.004-0.258 0.229c-0.186 0.196-0.361 0.407-0.52 0.631l-0.012 0.018-0.116 0.144c-0.18 0.264-0.349 0.566-0.489 0.883l-0.015 0.037c0 0.001 0 0.002 0 0.003 0 0.080-0.027 0.154-0.071 0.213l0.001-0.001c-0.071 0.166-0.144 0.376-0.205 0.591l-0.010 0.041h-0.648v-5.379h6.025c0.794 0 1.438-0.644 1.438-1.438v0-3.842l6.342 5.221z"></path>
</svg>
