<!-- Generated by IcoMoon.io -->
<svg version="1.1" xmlns="http://www.w3.org/2000/svg" width="45" height="32" viewBox="0 0 45 32">
<title>noun_hide_2040068</title>
<path fill="#808080" d="M45.054 14.732c-0.382-0.479-10.045-11.718-22.243-11.718-2.576 0.017-5.040 0.471-7.33 1.292l0.155-0.048 15.784 11.959c0.333-0.898 0.526-1.935 0.526-3.017 0-1.675-0.462-3.242-1.266-4.581l0.022 0.040c3.955 1.933 7.337 4.383 10.233 7.314l0.004 0.004c-1.412 1.397-2.925 2.698-4.527 3.889l-0.113 0.080 3.205 2.44c2.040-1.605 3.854-3.297 5.517-5.129l0.033-0.037c0.268-0.339 0.43-0.772 0.43-1.244s-0.162-0.905-0.433-1.248l0.003 0.004z"></path>
<path fill="#808080" d="M42.473 28.508l-37.071-28.136c-0.317-0.24-0.718-0.385-1.152-0.385-1.058 0-1.916 0.858-1.916 1.916 0 0.624 0.298 1.178 0.759 1.528l0.005 0.003 5.597 4.257c-3.119 2.059-5.82 4.382-8.196 7.005l-0.032 0.036c-0.289 0.331-0.466 0.767-0.466 1.244s0.177 0.913 0.468 1.246l-0.002-0.002c0.382 0.479 10.045 11.718 22.29 11.718 3.831-0.071 7.424-1.016 10.613-2.641l-0.138 0.064 6.888 5.262c0.32 0.23 0.717 0.372 1.147 0.382l0.002 0c0.009 0 0.019 0 0.029 0 0.615 0 1.161-0.299 1.499-0.76l0.004-0.005c0.258-0.328 0.414-0.747 0.414-1.202 0-0.618-0.288-1.17-0.737-1.527l-0.004-0.003zM22.764 25.071c-8.228 0-15.451-6.362-18.177-9.087 2.157-2.178 4.573-4.092 7.201-5.694l0.166-0.094 1.866 1.387c-0.091 0.503-0.143 1.082-0.144 1.673v0c0.004 5.013 4.066 9.075 9.078 9.079h0c0.013 0 0.028 0 0.044 0 1.434 0 2.785-0.354 3.972-0.978l-0.047 0.022 2.968 2.244c-2.045 0.9-4.428 1.429-6.933 1.441l-0.004 0z"></path>
</svg>
