<!-- Generated by IcoMoon.io -->
<svg version="1.1" xmlns="http://www.w3.org/2000/svg" width="32" height="32" viewBox="0 0 32 32">
<title>noun_Search_2102816-2</title>
<path d="M11.818 23.641c0.003 0 0.006 0 0.009 0 2.791 0 5.355-0.969 7.375-2.59l-0.023 0.018 10.54 10.54c0.242 0.242 0.576 0.392 0.945 0.392 0.738 0 1.337-0.599 1.337-1.337 0-0.369-0.15-0.703-0.392-0.945l-10.54-10.54c1.606-2.002 2.577-4.573 2.577-7.37 0-6.532-5.295-11.827-11.827-11.827s-11.827 5.295-11.827 11.827c0 6.532 5.295 11.827 11.827 11.827 0.001 0 0.002 0 0.003 0h-0zM5.343 5.348c1.659-1.662 3.953-2.691 6.487-2.691 5.061 0 9.164 4.103 9.164 9.164s-4.103 9.164-9.164 9.164c-2.534 0-4.828-1.028-6.486-2.691l-0-0c-1.671-1.65-2.706-3.941-2.706-6.473s1.035-4.823 2.705-6.472l0.001-0.001z"></path>
</svg>
