<!-- Generated by IcoMoon.io -->
<svg version="1.1" xmlns="http://www.w3.org/2000/svg" width="32" height="32" viewBox="0 0 32 32">
<title>noun_payment_2281176</title>
<path fill="#fbb03b" d="M2.656 29.207c-0.368-0.002-0.665-0.301-0.665-0.669 0-0.369 0.299-0.669 0.669-0.669s0.669 0.299 0.669 0.669c0 0.185-0.075 0.353-0.197 0.474l-0 0c-0.121 0.12-0.288 0.195-0.472 0.195-0.001 0-0.003 0-0.004 0h0z"></path>
<path fill="#fbb03b" d="M6.187 32h-6.187v-1.602h4.586v-8.209h-4.586v-1.601h6.187z"></path>
<path fill="#fbb03b" d="M15.687 30.366h-8.441v-8.125l0.093-0.177c0.527-0.913 1.293-1.637 2.212-2.099l0.030-0.014c0.88-0.433 1.915-0.686 3.009-0.686 0.966 0 1.886 0.197 2.722 0.553l-0.045-0.017c0.686 0.281 1.246 0.553 1.788 0.855l-0.085-0.043c0.454 0.237 0.882 0.464 1.325 0.649 0.156 0.060 0.347 0.117 0.543 0.161l0.029 0.005c0.839 0.084 1.552 0.561 1.958 1.242l0.006 0.012c0.164 0.407 0.259 0.879 0.259 1.373 0 0.129-0.006 0.256-0.019 0.382l0.001-0.016 4.033-0.058 2.092-2.319c0.402-0.446 0.982-0.725 1.627-0.725 1.208 0 2.188 0.98 2.188 2.188 0 0.564-0.213 1.077-0.563 1.465l0.002-0.002-3.154 3.516zM8.852 28.764h6.706l10.926-1.762 2.774-3.102c0.092-0.103 0.148-0.239 0.148-0.389 0-0.324-0.262-0.586-0.586-0.586-0.171 0-0.326 0.074-0.433 0.191l-0 0-2.559 2.834-9.914 0.15-0.023-1.601 3.587-0.053c0.014-0.099 0.021-0.214 0.021-0.331 0-0.282-0.046-0.553-0.13-0.807l0.005 0.018c-0.061-0.139-0.595-0.271-0.881-0.341-0.316-0.070-0.587-0.154-0.848-0.259l0.037 0.013c-0.505-0.213-0.983-0.464-1.446-0.707-0.412-0.233-0.918-0.48-1.439-0.699l-0.1-0.037c-0.619-0.271-1.34-0.428-2.098-0.428-0.826 0-1.608 0.187-2.306 0.521l0.032-0.014c-0.602 0.303-1.098 0.739-1.463 1.271l-0.008 0.013z"></path>
<path fill="#fbb03b" d="M32 3.575v-1.703l-5.101-1.872-9.852 5.065h-8.503v11.921h19.52v-3.376c0.265 0.009 0.528 0.019 0.784 0.038 0.16 0.009 0.32 0.016 0.48 0.016 0.96-0.008 1.878-0.182 2.728-0.495l-0.056 0.018v-1.711l-0.022 0.009c-0.791 0.363-1.716 0.575-2.69 0.575-0.117 0-0.234-0.003-0.35-0.009l0.016 0.001c-0.291-0.019-0.585-0.032-0.889-0.042-0.512-0.013-1.040-0.009-1.6 0.009-0.771 0.026-1.597 0.086-2.499 0.179l-0.986 0.102c-0.038 0.006-0.083 0.009-0.128 0.009-0.517 0-0.936-0.419-0.936-0.936 0-0.472 0.349-0.862 0.803-0.927l0.005-0.001 3.731-0.649c0.001 0.001 0.003 0.001 0.005 0.001s0.003-0 0.005-0.001l-0 0c0.679-0.12 1.247-0.517 1.593-1.067l0.006-0.010c0.229-0.36 0.366-0.799 0.366-1.27 0-1.317-1.066-2.384-2.382-2.387h-5.504l6.465-3.318zM26.048 6.665c0.002-0 0.005-0 0.008-0 0.152 0 0.293 0.044 0.412 0.121l-0.003-0.002c0.223 0.142 0.369 0.388 0.369 0.667s-0.146 0.526-0.365 0.665l-0.003 0.002c-0.080 0.051-0.173 0.088-0.274 0.105l-0.005 0.001-3.731 0.649c-1.205 0.211-2.108 1.249-2.108 2.499 0 1.4 1.135 2.535 2.535 2.535 0.002 0 0.004 0 0.006 0h-0c0.003 0 0.007 0 0.011 0 0.086 0 0.172-0.005 0.256-0.014l-0.010 0.001s2.605-0.243 3.325-0.269v1.762h-16.325v-8.719z"></path>
<path fill="#fbb03b" d="M17.608 10.225h1.6v1.6h-1.6v-1.6z"></path>
</svg>
