<!-- Generated by IcoMoon.io -->
<svg version="1.1" xmlns="http://www.w3.org/2000/svg" width="30" height="32" viewBox="0 0 30 32">
<title>noun_guarantee_2519048</title>
<path d="M29.506 4.128l-14.035-4.081c-0.096-0.030-0.206-0.047-0.32-0.047s-0.224 0.017-0.328 0.049l0.008-0.002-14.033 4.081c-0.465 0.144-0.798 0.571-0.798 1.075 0 0.001 0 0.002 0 0.003v-0 12.254c0 10.662 14.276 14.355 14.887 14.507 0.081 0.021 0.175 0.034 0.271 0.034 0.103 0 0.203-0.014 0.298-0.041l-0.008 0.002c0.876-0.22 14.865-3.936 14.865-14.502v-12.254c0 0 0-0 0-0 0-0.508-0.337-0.937-0.8-1.076l-0.008-0.002zM28.069 17.46c0 8.196-11.025 11.733-12.912 12.255-1.882-0.523-12.912-4.042-12.912-12.255v-11.406l12.912-3.761 12.912 3.756z"></path>
<path d="M14.033 8.983v1.177c-1.606 0.276-2.813 1.658-2.813 3.322 0 1.86 1.508 3.368 3.368 3.368 0.002 0 0.005 0 0.007 0h1.684c0.62 0 1.123 0.503 1.123 1.123s-0.503 1.123-1.123 1.123h-3.367c-0.62 0-1.123 0.503-1.123 1.123s0.503 1.123 1.123 1.123h1.122v1.123c0 0.62 0.503 1.123 1.123 1.123s1.123-0.503 1.123-1.123v0-1.13c1.86 0 3.368-1.508 3.368-3.368s-1.508-3.368-3.368-3.368h-1.683c-0.62 0-1.123-0.503-1.123-1.123s0.503-1.123 1.123-1.123h3.368c0.62 0 1.123-0.503 1.123-1.123s-0.503-1.123-1.123-1.123h-1.684v-1.124c0-0.62-0.503-1.123-1.123-1.123s-1.123 0.503-1.123 1.123v0z"></path>
</svg>
