<!-- Generated by IcoMoon.io -->
<svg version="1.1" xmlns="http://www.w3.org/2000/svg" width="32" height="32" viewBox="0 0 32 32">
<title>noun_Heart_2102871-11</title>
<path d="M22.65 0c-2.642 0.019-5.011 1.176-6.642 3.005l-0.008 0.009c-1.639-1.838-4.008-2.995-6.647-3.014l-0.003-0c-5.217 0.235-9.357 4.521-9.357 9.775 0 0.132 0.003 0.262 0.008 0.393l-0.001-0.019c0 8.169 14.503 20.978 15.127 21.527 0.234 0.207 0.543 0.333 0.882 0.333 0.33 0 0.633-0.12 0.866-0.319l-0.002 0.002c0.619-0.524 15.137-12.924 15.137-21.527 0.005-0.116 0.008-0.252 0.008-0.389 0-5.257-4.146-9.546-9.347-9.775l-0.021-0.001zM16.014 28.897c-4.404-4.032-13.347-13.337-13.347-18.74-0.006-0.111-0.010-0.241-0.010-0.372 0-3.783 2.948-6.877 6.672-7.109l0.020-0.001c2.349 0.048 4.387 1.332 5.497 3.225l0.017 0.031c0.238 0.385 0.658 0.637 1.136 0.637s0.898-0.252 1.133-0.631l0.003-0.006c1.127-1.924 3.165-3.207 5.507-3.256l0.007-0c3.744 0.234 6.693 3.328 6.693 7.11 0 0.131-0.004 0.261-0.010 0.39l0.001-0.018c0 5.706-8.917 14.815-13.32 18.74z"></path>
</svg>
