<!-- Generated by IcoMoon.io -->
<svg version="1.1" xmlns="http://www.w3.org/2000/svg" width="56" height="32" viewBox="0 0 56 32">
<title>Path-138</title>
<path fill="#fff" d="M54.012 4.999h-7.096c-1.029 0-1.863 0.834-1.863 1.863v0 1.477h-3.128l-5.27-5.309c-1.872-1.877-4.46-3.038-7.32-3.038s-5.448 1.161-7.32 3.038l-0 0-4.359 4.366h-15.792c-1.029 0-1.863 0.834-1.863 1.863v0 20.877c0 1.029 0.834 1.863 1.863 1.863v0h31.774c1.029 0 1.863-0.834 1.863-1.863v0-7.076h2.813c1.359 1.582 3.354 2.584 5.583 2.607l0.004 0h1.081v1.484c0 1.029 0.834 1.863 1.863 1.863v0h7.17c1.027-0.003 1.858-0.836 1.858-1.863 0 0 0 0 0 0v0-20.296c-0.004-1.025-0.835-1.854-1.861-1.856h-0zM18.384 11.152h13.409v2.954h-4.844c-1.56 0.016-2.926 0.829-3.713 2.050l-0.011 0.018h-19.501v-5.021zM31.793 28.382h-28.069v-8.583h18.952c0.569 1.853 2.261 3.178 4.265 3.185h4.842zM43.992 21.938c-0.002 0-0.005 0-0.007 0-1.314 0-2.469-0.68-3.132-1.708l-0.009-0.015c-0.335-0.528-0.917-0.874-1.579-0.874-0.001 0-0.003 0-0.004 0h-12.329c-0.034 0.005-0.074 0.009-0.114 0.009-0.421 0-0.763-0.342-0.763-0.763s0.342-0.763 0.763-0.763c0.040 0 0.080 0.003 0.119 0.009l-0.004-0.001h12.307c0.999-0.037 1.796-0.857 1.796-1.862s-0.796-1.825-1.792-1.862l-0.003-0h-3.722v-4.812c0-1.029-0.834-1.863-1.863-1.863v0h-10.707l1.723-1.723c1.212-1.147 2.851-1.852 4.656-1.852s3.444 0.705 4.659 1.855l-0.003-0.003 5.811 5.811c0.337 0.333 0.8 0.539 1.311 0.539 0.004 0 0.008 0 0.012-0h3.91v9.89zM52.149 25.29h-3.372v-16.572h3.372z"></path>
</svg>
