<!-- Generated by IcoMoon.io -->
<svg version="1.1" xmlns="http://www.w3.org/2000/svg" width="38" height="32" viewBox="0 0 38 32">
<title>Path-5</title>
<path fill="#fbb03b" d="M1.585 3.17h2.648l3.97 17.917c-1.931 0.937-3.238 2.883-3.238 5.134 0 0.045 0 0.089 0.002 0.133l-0-0.007c-0.003 0.072-0.005 0.157-0.005 0.243 0 2.89 2.263 5.251 5.113 5.409l0.014 0.001h21.020c0.875 0 1.585-0.71 1.585-1.585s-0.71-1.585-1.585-1.585h-21.020c-1.119-0.171-1.966-1.126-1.966-2.279 0-0.075 0.004-0.148 0.010-0.221l-0.001 0.009c-0.006-0.064-0.010-0.139-0.010-0.214 0-1.153 0.847-2.109 1.954-2.278l0.013-0.002h21.020c0 0 0 0 0 0 0.683 0 1.264-0.432 1.487-1.037l0.004-0.011 5.352-14.857c0.059-0.16 0.094-0.344 0.094-0.537 0-0.875-0.71-1.585-1.585-1.585-0 0-0 0-0 0h-28.391l-1.013-4.565c-0.158-0.722-0.792-1.254-1.55-1.254-0 0-0 0-0 0h-3.913c-0.875 0-1.585 0.71-1.585 1.585s0.71 1.585 1.585 1.585v0zM34.193 8.987l-4.193 11.687h-18.641l-2.589-11.685h25.435z"></path>
</svg>
