<!-- Generated by IcoMoon.io -->
<svg version="1.1" xmlns="http://www.w3.org/2000/svg" width="47" height="32" viewBox="0 0 47 32">
<title>youtube</title>
<path fill="#c5c5c5" d="M44.566 3.083c-1.261-2.246-2.623-2.659-5.422-2.816s-9.796-0.267-15.866-0.267-13.093 0.079-15.878 0.265-4.156 0.57-5.429 2.818-1.97 6.107-1.97 12.907v0.024c0 6.772 0.67 10.664 1.97 12.876s2.644 2.661 5.422 2.849 9.798 0.26 15.881 0.26 13.079-0.095 15.869-0.255 4.161-0.596 5.422-2.842c1.311-2.22 1.974-6.111 1.974-12.876v-0.024c0.005-6.813-0.658-10.675-1.972-12.919zM17.455 24.727v-17.455l14.545 8.727z"></path>
</svg>
