<svg aria-hidden="true" style="position: absolute; width: 0; height: 0; overflow: hidden;" version="1.1" xmlns="http://www.w3.org/2000/svg" xmlns:xlink="http://www.w3.org/1999/xlink">
<defs>
<symbol id="icon-noun_send_2043076" viewBox="0 0 32 32">
<path fill="#b5b5b5" style="fill: var(--color1, #b5b5b5)" d="M31.968 0.265c-0.162-0.164-0.386-0.265-0.634-0.265-0.131 0-0.254 0.028-0.366 0.078l0.006-0.002-30.435 13.241c-0.319 0.142-0.537 0.456-0.537 0.82 0 0.409 0.274 0.753 0.648 0.861l0.006 0.002 12.972 3.598 3.375 12.739c0.097 0.365 0.412 0.635 0.794 0.663l0.003 0h0.071c0 0 0 0 0 0 0.361 0 0.671-0.214 0.812-0.522l0.002-0.006 13.462-30.214c0.050-0.108 0.080-0.234 0.080-0.367 0-0.245-0.099-0.466-0.259-0.627l0 0z"></path>
</symbol>
<symbol id="icon-noun_Heart_2102871-1" viewBox="0 0 32 32">
<path fill="#fff" style="fill: var(--color2, #fff)" d="M22.65 0c-2.642 0.019-5.011 1.176-6.642 3.005l-0.008 0.009c-1.639-1.838-4.008-2.995-6.647-3.014l-0.003-0c-5.217 0.235-9.357 4.521-9.357 9.775 0 0.132 0.003 0.262 0.008 0.393l-0.001-0.019c0 8.169 14.503 20.978 15.127 21.527 0.234 0.207 0.543 0.333 0.882 0.333 0.33 0 0.633-0.12 0.866-0.319l-0.002 0.002c0.619-0.524 15.137-12.924 15.137-21.527 0.005-0.116 0.008-0.252 0.008-0.389 0-5.257-4.146-9.546-9.347-9.775l-0.021-0.001zM16.014 28.897c-4.404-4.032-13.347-13.337-13.347-18.74-0.006-0.111-0.010-0.241-0.010-0.372 0-3.783 2.948-6.877 6.672-7.109l0.020-0.001c2.349 0.048 4.387 1.332 5.497 3.225l0.017 0.031c0.238 0.385 0.658 0.637 1.136 0.637s0.898-0.252 1.133-0.631l0.003-0.006c1.127-1.924 3.165-3.207 5.507-3.256l0.007-0c3.744 0.234 6.693 3.328 6.693 7.11 0 0.131-0.004 0.261-0.010 0.39l0.001-0.018c0 5.706-8.917 14.815-13.32 18.74z"></path>
</symbol>
<symbol id="icon-close" viewBox="0 0 32 32">
<path d="M31.318 0.679c-0.419-0.421-1-0.681-1.641-0.681s-1.221 0.26-1.641 0.681l-12.036 12.036-12.034-12.036c-0.42-0.42-1.001-0.68-1.642-0.68-1.283 0-2.322 1.040-2.322 2.322 0 0.641 0.26 1.222 0.68 1.642l12.036 12.036-12.036 12.034c-0.389 0.414-0.628 0.973-0.628 1.588 0 1.282 1.039 2.322 2.322 2.322 0.618 0 1.18-0.242 1.596-0.636l-0.001 0.001 12.029-12.039 12.036 12.036c0.425 0.455 1.028 0.738 1.698 0.738 1.282 0 2.322-1.039 2.322-2.322 0-0.661-0.276-1.257-0.72-1.68l-0.001-0.001-12.063-12.044 12.036-12.036c0.421-0.421 0.681-1.003 0.681-1.646 0-0.638-0.256-1.216-0.672-1.636l0 0z"></path>
</symbol>
<symbol id="icon-delivery" viewBox="0 0 38 32">
<path fill="#d8d8d8" style="fill: var(--color3, #d8d8d8)" d="M36.803 0h-24.023c-0.883 0-1.6 0.716-1.6 1.6v0 7.982h-4.783c-0.001 0-0.002 0-0.003 0-0.552 0-1.038 0.28-1.324 0.706l-0.004 0.006-4.799 7.23c-0.168 0.249-0.269 0.557-0.269 0.888 0 0 0 0 0 0v-0 7.205c0 0.883 0.716 1.6 1.6 1.6v0h0.088c0.398 2.724 2.718 4.792 5.52 4.792s5.123-2.068 5.517-4.762l0.004-0.030h9.755c0.398 2.724 2.718 4.792 5.52 4.792s5.123-2.068 5.517-4.762l0.004-0.030h3.278c0.883 0 1.6-0.716 1.6-1.6v0-24.011c0-0.001 0-0.003 0-0.005 0-0.883-0.716-1.6-1.6-1.6 0 0 0 0 0 0v0zM3.199 18.887l4.087-6.084h3.918v9.685c-0.063-0.063-0.133-0.106-0.199-0.163-0.158-0.147-0.316-0.28-0.486-0.409l-0.339-0.226c-0.163-0.103-0.355-0.204-0.554-0.291l-0.029-0.011c-0.226-0.093-0.226-0.117-0.361-0.169-0.18-0.074-0.402-0.146-0.631-0.203l-0.036-0.008c-0.111-0.029-0.226-0.063-0.332-0.088-0.319-0.069-0.685-0.109-1.061-0.111h-0.001c-0.375 0.001-0.74 0.041-1.092 0.117l0.035-0.006c-0.126 0.017-0.241 0.048-0.349 0.092l0.010-0.003c-0.261 0.064-0.481 0.136-0.694 0.222l0.034-0.012c-0.129 0.052-0.251 0.111-0.373 0.176-0.214 0.101-0.391 0.2-0.562 0.31l0.019-0.012c-0.122 0.077-0.239 0.158-0.361 0.246-0.168 0.125-0.315 0.247-0.456 0.376l0.004-0.004c-0.14 0.129-0.151 0.117-0.226 0.188zM7.198 28.812c-1.324-0.004-2.395-1.076-2.399-2.399v-0c0.003-0.173 0.020-0.34 0.050-0.502l-0.003 0.018c0.227-1.108 1.194-1.93 2.353-1.93s2.126 0.822 2.35 1.915l0.003 0.015c0.029 0.147 0.047 0.316 0.047 0.49v0.001c-0.010 1.316-1.076 2.38-2.392 2.388h-0.001zM28.008 28.812c-0.004 0-0.010 0-0.015 0-1.329 0-2.406-1.077-2.406-2.406s1.077-2.406 2.406-2.406c1.147 0 2.107 0.803 2.348 1.877l0.003 0.016c0.031 0.146 0.049 0.315 0.052 0.488l0 0.002c0 0.005 0 0.012 0 0.018 0 1.323-1.067 2.396-2.387 2.406h-0.001zM33.064 24.007c-0.052-0.111-0.122-0.226-0.188-0.328s-0.088-0.176-0.14-0.258c-0.152-0.219-0.3-0.409-0.458-0.591l0.007 0.008c-0.024-0.027-0.047-0.058-0.068-0.089l-0.002-0.003c-0.194-0.209-0.4-0.399-0.619-0.574l-0.011-0.009-0.192-0.147c-0.153-0.121-0.325-0.239-0.505-0.345l-0.29-0.159c-0.144-0.084-0.316-0.169-0.493-0.243l-0.029-0.010c-0.077-0.035-0.175-0.072-0.276-0.105l-0.022-0.006c-0.154-0.056-0.349-0.112-0.548-0.156l-0.035-0.006-0.28-0.059c-0.272-0.052-0.584-0.082-0.904-0.082s-0.632 0.030-0.935 0.087l0.031-0.005-0.273 0.059c-0.235 0.051-0.43 0.107-0.62 0.174l0.037-0.011c-0.11 0.023-0.207 0.061-0.296 0.113l0.005-0.003c-0.221 0.091-0.399 0.178-0.572 0.273l0.030-0.015-0.251 0.133c-0.224 0.131-0.414 0.26-0.595 0.4l0.012-0.009-0.147 0.106c-0.454 0.387-0.841 0.834-1.154 1.332l-0.014 0.024-0.099 0.176c-0.070 0.129-0.151 0.251-0.21 0.38h-8.554v-20.86h20.803v4.805h-11.206c-0.883 0-1.6 0.716-1.6 1.6s0.716 1.6 1.6 1.6h11.204v12.799z"></path>
</symbol>
<symbol id="icon-gmail" viewBox="0 0 42 32">
<path fill="#f2f2f2" style="fill: var(--color4, #f2f2f2)" d="M39.787 5.073l-2.681 26.927h-32.207l-2.16-26.399 18.264 10.226z"></path>
<path fill="#f2f2f2" style="fill: var(--color4, #f2f2f2)" d="M38.877 0l-17.875 16.8-17.875-16.8h35.75z"></path>
<path fill="#f14336" style="fill: var(--color5, #f14336)" d="M4.898 7.745v24.246h-2.917c0 0 0 0-0 0-1.091 0-1.976-0.882-1.981-1.972v-25.837l3.201 0.087z"></path>
<path fill="#d32e2a" style="fill: var(--color6, #d32e2a)" d="M42.006 4.182v25.837c0 1.094-0.887 1.981-1.981 1.981v0h-2.917v-24.248l1.614-3.816z"></path>
<path fill="#f14336" style="fill: var(--color5, #f14336)" d="M42.006 1.981v2.201l-21.002 15.309-21.004-15.309v-2.201c0-1.094 0.887-1.981 1.981-1.981h1.148l17.875 13.030 17.875-13.030h1.145c1.094 0 1.981 0.887 1.981 1.981v0z"></path>
<path fill="#d32e2a" style="fill: var(--color6, #d32e2a)" d="M4.898 7.745l-4.898-0.751v-2.812z"></path>
</symbol>
<symbol id="icon-Group-9" viewBox="0 0 17 32">
<path fill="#fff" style="fill: var(--color2, #fff)" d="M16.65 0h-4.15c-0.122-0.007-0.265-0.011-0.409-0.011-4.026 0-7.29 3.264-7.29 7.29 0 0.21 0.009 0.418 0.026 0.623l-0.002-0.027v3.632h-4.173c-0.36 0-0.652 0.292-0.652 0.652v0 5.261c0 0.36 0.292 0.652 0.652 0.652v0h4.172v13.273c0 0.36 0.292 0.652 0.652 0.652h5.445c0.36 0 0.652-0.292 0.652-0.652v0-13.273h4.87c0.36 0 0.652-0.292 0.652-0.652v0-5.261c0-0.36-0.292-0.652-0.652-0.652v0h-4.87v-3.078c0-1.48 0.352-2.231 2.28-2.231h2.796c0.36 0 0.652-0.292 0.652-0.652v0-4.886c0-0.002 0-0.005 0-0.007 0-0.36-0.292-0.652-0.652-0.652 0 0-0 0-0 0v0z"></path>
</symbol>
<symbol id="icon-noun_Arrow-Left_2682937" viewBox="0 0 37 32">
<path d="M15.997 0l-15.997 16.014 15.997 15.986 2.659-2.653-11.458-11.458h29.623v-3.758h-29.626l11.461-11.466z"></path>
</symbol>
<symbol id="icon-noun_avatar_2102861-2" viewBox="0 0 32 32">
<path d="M28.874 23.281l-7.074-2.902c-0.371-0.15-0.629-0.506-0.632-0.923v-1.654c-0-0.002-0-0.005-0-0.008 0-0.22 0.076-0.422 0.202-0.582l-0.002 0.002c1.802-2.317 2.891-5.267 2.899-8.47v-0.002c0.002-5.229-3.321-8.743-8.268-8.743s-8.269 3.513-8.269 8.744c0.008 3.205 1.097 6.154 2.922 8.503l-0.024-0.032c0.125 0.158 0.2 0.36 0.2 0.58 0 0.002 0 0.005-0 0.007v-0 1.652c-0.003 0.417-0.261 0.773-0.625 0.921l-0.007 0.002-7.074 2.902c-1.848 0.763-3.124 2.55-3.124 4.636 0 0 0 0 0 0v0 2.752c0.001 0.736 0.598 1.332 1.334 1.332h29.332c0.737 0 1.334-0.597 1.334-1.334v0-2.75c-0.001-2.086-1.278-3.873-3.093-4.623l-0.033-0.012zM29.334 29.334h-26.668v-1.418c0.004-0.977 0.604-1.813 1.456-2.162l0.016-0.006 7.074-2.902c1.351-0.558 2.285-1.865 2.285-3.39v-1.654c0-0.001 0-0.003 0-0.004 0-0.855-0.297-1.641-0.794-2.26l0.005 0.007c-1.431-1.867-2.297-4.231-2.311-6.798v-0.003c0-4.48 2.893-6.077 5.603-6.077s5.603 1.597 5.603 6.077c-0.013 2.57-0.88 4.934-2.331 6.828l0.020-0.027c-0.491 0.612-0.788 1.398-0.788 2.253 0 0.001 0 0.003 0 0.004v-0 1.652c0 1.525 0.934 2.833 2.261 3.381l0.024 0.009 7.074 2.902c0.867 0.355 1.468 1.19 1.472 2.167v0z"></path>
</symbol>
<symbol id="icon-noun_cart_2102832-4" viewBox="0 0 32 32">
<path fill="#fff" style="fill: var(--color2, #fff)" d="M1.333 2.666h2.227l3.339 15.071c-1.624 0.788-2.724 2.425-2.724 4.319 0 0.037 0 0.075 0.001 0.112l-0-0.006c-0.003 0.061-0.005 0.132-0.005 0.204 0 2.431 1.903 4.417 4.301 4.55l0.012 0.001h17.68c0.736 0 1.333-0.597 1.333-1.333s-0.597-1.333-1.333-1.333h-17.68c-0.941-0.143-1.654-0.947-1.654-1.917 0-0.063 0.003-0.125 0.009-0.186l-0.001 0.008c-0.005-0.054-0.008-0.117-0.008-0.18 0-0.97 0.713-1.774 1.643-1.916l0.011-0.001h17.68c0 0 0 0 0 0 0.574 0 1.064-0.363 1.251-0.872l0.003-0.009 4.502-12.496c0.050-0.134 0.079-0.29 0.079-0.452 0-0.736-0.597-1.333-1.333-1.333-0 0-0 0-0 0h-23.881l-0.852-3.84c-0.133-0.607-0.666-1.055-1.304-1.055 0 0-0 0-0 0h-3.291c-0.736 0-1.333 0.597-1.333 1.333s0.597 1.333 1.333 1.333v0zM28.762 7.559l-3.527 9.83h-15.68l-2.178-9.829h21.394z"></path>
<path fill="#fff" style="fill: var(--color2, #fff)" d="M9.563 29.334c-0.736 0-1.333 0.597-1.333 1.333s0.597 1.333 1.333 1.333h1.693c0.736 0 1.333-0.597 1.333-1.333s-0.597-1.333-1.333-1.333v0z"></path>
<path fill="#fff" style="fill: var(--color2, #fff)" d="M21.864 29.334c-0.736 0-1.333 0.597-1.333 1.333s0.597 1.333 1.333 1.333h1.693c0.736 0 1.333-0.597 1.333-1.333s-0.597-1.333-1.333-1.333v0z"></path>
</symbol>
<symbol id="icon-noun_Heart_2102871-11" viewBox="0 0 32 32">
<path d="M22.65 0c-2.642 0.019-5.011 1.176-6.642 3.005l-0.008 0.009c-1.639-1.838-4.008-2.995-6.647-3.014l-0.003-0c-5.217 0.235-9.357 4.521-9.357 9.775 0 0.132 0.003 0.262 0.008 0.393l-0.001-0.019c0 8.169 14.503 20.978 15.127 21.527 0.234 0.207 0.543 0.333 0.882 0.333 0.33 0 0.633-0.12 0.866-0.319l-0.002 0.002c0.619-0.524 15.137-12.924 15.137-21.527 0.005-0.116 0.008-0.252 0.008-0.389 0-5.257-4.146-9.546-9.347-9.775l-0.021-0.001zM16.014 28.897c-4.404-4.032-13.347-13.337-13.347-18.74-0.006-0.111-0.010-0.241-0.010-0.372 0-3.783 2.948-6.877 6.672-7.109l0.020-0.001c2.349 0.048 4.387 1.332 5.497 3.225l0.017 0.031c0.238 0.385 0.658 0.637 1.136 0.637s0.898-0.252 1.133-0.631l0.003-0.006c1.127-1.924 3.165-3.207 5.507-3.256l0.007-0c3.744 0.234 6.693 3.328 6.693 7.11 0 0.131-0.004 0.261-0.010 0.39l0.001-0.018c0 5.706-8.917 14.815-13.32 18.74z"></path>
</symbol>
<symbol id="icon-noun_hide_2040068" viewBox="0 0 45 32">
<path fill="#808080" style="fill: var(--color7, #808080)" d="M45.054 14.732c-0.382-0.479-10.045-11.718-22.243-11.718-2.576 0.017-5.040 0.471-7.33 1.292l0.155-0.048 15.784 11.959c0.333-0.898 0.526-1.935 0.526-3.017 0-1.675-0.462-3.242-1.266-4.581l0.022 0.040c3.955 1.933 7.337 4.383 10.233 7.314l0.004 0.004c-1.412 1.397-2.925 2.698-4.527 3.889l-0.113 0.080 3.205 2.44c2.040-1.605 3.854-3.297 5.517-5.129l0.033-0.037c0.268-0.339 0.43-0.772 0.43-1.244s-0.162-0.905-0.433-1.248l0.003 0.004z"></path>
<path fill="#808080" style="fill: var(--color7, #808080)" d="M42.473 28.508l-37.071-28.136c-0.317-0.24-0.718-0.385-1.152-0.385-1.058 0-1.916 0.858-1.916 1.916 0 0.624 0.298 1.178 0.759 1.528l0.005 0.003 5.597 4.257c-3.119 2.059-5.82 4.382-8.196 7.005l-0.032 0.036c-0.289 0.331-0.466 0.767-0.466 1.244s0.177 0.913 0.468 1.246l-0.002-0.002c0.382 0.479 10.045 11.718 22.29 11.718 3.831-0.071 7.424-1.016 10.613-2.641l-0.138 0.064 6.888 5.262c0.32 0.23 0.717 0.372 1.147 0.382l0.002 0c0.009 0 0.019 0 0.029 0 0.615 0 1.161-0.299 1.499-0.76l0.004-0.005c0.258-0.328 0.414-0.747 0.414-1.202 0-0.618-0.288-1.17-0.737-1.527l-0.004-0.003zM22.764 25.071c-8.228 0-15.451-6.362-18.177-9.087 2.157-2.178 4.573-4.092 7.201-5.694l0.166-0.094 1.866 1.387c-0.091 0.503-0.143 1.082-0.144 1.673v0c0.004 5.013 4.066 9.075 9.078 9.079h0c0.013 0 0.028 0 0.044 0 1.434 0 2.785-0.354 3.972-0.978l-0.047 0.022 2.968 2.244c-2.045 0.9-4.428 1.429-6.933 1.441l-0.004 0z"></path>
</symbol>
<symbol id="icon-noun_Search_2102816-2" viewBox="0 0 32 32">
<path d="M11.818 23.641c0.003 0 0.006 0 0.009 0 2.791 0 5.355-0.969 7.375-2.59l-0.023 0.018 10.54 10.54c0.242 0.242 0.576 0.392 0.945 0.392 0.738 0 1.337-0.599 1.337-1.337 0-0.369-0.15-0.703-0.392-0.945l-10.54-10.54c1.606-2.002 2.577-4.573 2.577-7.37 0-6.532-5.295-11.827-11.827-11.827s-11.827 5.295-11.827 11.827c0 6.532 5.295 11.827 11.827 11.827 0.001 0 0.002 0 0.003 0h-0zM5.343 5.348c1.659-1.662 3.953-2.691 6.487-2.691 5.061 0 9.164 4.103 9.164 9.164s-4.103 9.164-9.164 9.164c-2.534 0-4.828-1.028-6.486-2.691l-0-0c-1.671-1.65-2.706-3.941-2.706-6.473s1.035-4.823 2.705-6.472l0.001-0.001z"></path>
</symbol>
<symbol id="icon-Path-5" viewBox="0 0 38 32">
<path fill="#fbb03b" style="fill: var(--color8, #fbb03b)" d="M1.585 3.17h2.648l3.97 17.917c-1.931 0.937-3.238 2.883-3.238 5.134 0 0.045 0 0.089 0.002 0.133l-0-0.007c-0.003 0.072-0.005 0.157-0.005 0.243 0 2.89 2.263 5.251 5.113 5.409l0.014 0.001h21.020c0.875 0 1.585-0.71 1.585-1.585s-0.71-1.585-1.585-1.585h-21.020c-1.119-0.171-1.966-1.126-1.966-2.279 0-0.075 0.004-0.148 0.010-0.221l-0.001 0.009c-0.006-0.064-0.010-0.139-0.010-0.214 0-1.153 0.847-2.109 1.954-2.278l0.013-0.002h21.020c0 0 0 0 0 0 0.683 0 1.264-0.432 1.487-1.037l0.004-0.011 5.352-14.857c0.059-0.16 0.094-0.344 0.094-0.537 0-0.875-0.71-1.585-1.585-1.585-0 0-0 0-0 0h-28.391l-1.013-4.565c-0.158-0.722-0.792-1.254-1.55-1.254-0 0-0 0-0 0h-3.913c-0.875 0-1.585 0.71-1.585 1.585s0.71 1.585 1.585 1.585v0zM34.193 8.987l-4.193 11.687h-18.641l-2.589-11.685h25.435z"></path>
</symbol>
<symbol id="icon-Path-138" viewBox="0 0 56 32">
<path fill="#fff" style="fill: var(--color2, #fff)" d="M54.012 4.999h-7.096c-1.029 0-1.863 0.834-1.863 1.863v0 1.477h-3.128l-5.27-5.309c-1.872-1.877-4.46-3.038-7.32-3.038s-5.448 1.161-7.32 3.038l-0 0-4.359 4.366h-15.792c-1.029 0-1.863 0.834-1.863 1.863v0 20.877c0 1.029 0.834 1.863 1.863 1.863v0h31.774c1.029 0 1.863-0.834 1.863-1.863v0-7.076h2.813c1.359 1.582 3.354 2.584 5.583 2.607l0.004 0h1.081v1.484c0 1.029 0.834 1.863 1.863 1.863v0h7.17c1.027-0.003 1.858-0.836 1.858-1.863 0 0 0 0 0 0v0-20.296c-0.004-1.025-0.835-1.854-1.861-1.856h-0zM18.384 11.152h13.409v2.954h-4.844c-1.56 0.016-2.926 0.829-3.713 2.050l-0.011 0.018h-19.501v-5.021zM31.793 28.382h-28.069v-8.583h18.952c0.569 1.853 2.261 3.178 4.265 3.185h4.842zM43.992 21.938c-0.002 0-0.005 0-0.007 0-1.314 0-2.469-0.68-3.132-1.708l-0.009-0.015c-0.335-0.528-0.917-0.874-1.579-0.874-0.001 0-0.003 0-0.004 0h-12.329c-0.034 0.005-0.074 0.009-0.114 0.009-0.421 0-0.763-0.342-0.763-0.763s0.342-0.763 0.763-0.763c0.040 0 0.080 0.003 0.119 0.009l-0.004-0.001h12.307c0.999-0.037 1.796-0.857 1.796-1.862s-0.796-1.825-1.792-1.862l-0.003-0h-3.722v-4.812c0-1.029-0.834-1.863-1.863-1.863v0h-10.707l1.723-1.723c1.212-1.147 2.851-1.852 4.656-1.852s3.444 0.705 4.659 1.855l-0.003-0.003 5.811 5.811c0.337 0.333 0.8 0.539 1.311 0.539 0.004 0 0.008 0 0.012-0h3.91v9.89zM52.149 25.29h-3.372v-16.572h3.372z"></path>
</symbol>
<symbol id="icon-payments" viewBox="0 0 56 32">
<path fill="#d8d8d8" style="fill: var(--color3, #d8d8d8)" d="M54.012 4.999h-7.096c-1.029 0-1.863 0.834-1.863 1.863v0 1.477h-3.128l-5.27-5.309c-1.872-1.877-4.46-3.038-7.32-3.038s-5.448 1.161-7.32 3.038l-0 0-4.359 4.366h-15.792c-1.029 0-1.863 0.834-1.863 1.863v0 20.877c0 1.029 0.834 1.863 1.863 1.863v0h31.774c1.029 0 1.863-0.834 1.863-1.863v0-7.076h2.813c1.359 1.582 3.354 2.584 5.583 2.607l0.004 0h1.081v1.484c0 1.029 0.834 1.863 1.863 1.863v0h7.17c1.027-0.003 1.858-0.836 1.858-1.863 0 0 0 0 0 0v0-20.296c-0.004-1.025-0.835-1.854-1.861-1.856h-0zM18.384 11.152h13.409v2.954h-4.844c-1.56 0.016-2.926 0.829-3.713 2.050l-0.011 0.018h-19.501v-5.021zM31.793 28.382h-28.069v-8.583h18.952c0.569 1.853 2.261 3.178 4.265 3.185h4.842zM43.992 21.938c-0.002 0-0.005 0-0.007 0-1.314 0-2.469-0.68-3.132-1.708l-0.009-0.015c-0.335-0.528-0.917-0.874-1.579-0.874-0.001 0-0.003 0-0.004 0h-12.329c-0.034 0.005-0.074 0.009-0.114 0.009-0.421 0-0.763-0.342-0.763-0.763s0.342-0.763 0.763-0.763c0.040 0 0.080 0.003 0.119 0.009l-0.004-0.001h12.307c0.999-0.037 1.796-0.857 1.796-1.862s-0.796-1.825-1.792-1.862l-0.003-0h-3.722v-4.812c0-1.029-0.834-1.863-1.863-1.863v0h-10.707l1.723-1.723c1.212-1.147 2.851-1.852 4.656-1.852s3.444 0.705 4.659 1.855l-0.003-0.003 5.811 5.811c0.337 0.333 0.8 0.539 1.311 0.539 0.004 0 0.008 0 0.012-0h3.91v9.89zM52.149 25.29h-3.372v-16.572h3.372z"></path>
</symbol>
<symbol id="icon-facebook-logo" viewBox="0 0 17 32">
<path fill="#c5c5c5" style="fill: var(--color9, #c5c5c5)" d="M16.65 0h-4.15c-0.123-0.007-0.267-0.012-0.412-0.012-4.025 0-7.288 3.263-7.288 7.288 0 0.211 0.009 0.42 0.027 0.626l-0.002-0.027v3.631h-4.172c-0.36 0-0.652 0.292-0.652 0.652v0 5.262c0 0.36 0.292 0.652 0.652 0.652v0h4.172v13.276c0 0.36 0.292 0.652 0.652 0.652v0h5.445c0.36 0 0.652-0.292 0.652-0.652v0-13.276h4.878c0.36 0 0.652-0.292 0.652-0.652v0-5.26c-0.001-0.36-0.292-0.651-0.652-0.652h-4.876v-3.081c0-1.478 0.353-2.231 2.279-2.231h2.796c0 0 0 0 0 0 0.36 0 0.652-0.292 0.652-0.652 0-0.001 0-0.003 0-0.004v0-4.881c0-0.002 0-0.005 0-0.007 0-0.36-0.292-0.652-0.652-0.652 0 0-0 0-0 0v0z"></path>
</symbol>
<symbol id="icon-linkedin-logo" viewBox="0 0 34 32">
<path fill="#c5c5c5" style="fill: var(--color9, #c5c5c5)" d="M33.489 19.62v12.38h-7.177v-11.551c0-2.902-1.038-4.883-3.637-4.883-1.693 0.010-3.131 1.090-3.673 2.598l-0.009 0.027c-0.154 0.456-0.244 0.981-0.244 1.527 0 0.079 0.002 0.157 0.006 0.234l-0-0.011v12.058h-7.179s0.097-19.564 0-21.592h7.179v3.061l-0.047 0.069h0.047v-0.069c1.254-2.151 3.55-3.574 6.179-3.574 0.103 0 0.205 0.002 0.306 0.006l-0.015-0.001c4.722 0 8.264 3.078 8.264 9.719zM4.062 0c-0.098-0.009-0.212-0.014-0.327-0.014-2.067 0-3.742 1.675-3.742 3.742s1.675 3.742 3.742 3.742c0.082 0 0.163-0.003 0.243-0.008l-0.011 0.001h0.047c0.092 0.008 0.198 0.013 0.306 0.013 2.067 0 3.742-1.675 3.742-3.742s-1.675-3.742-3.742-3.742c-0.091 0-0.181 0.003-0.271 0.010l0.012-0.001zM0.43 32h7.175v-21.598h-7.175z"></path>
</symbol>
<symbol id="icon-youtube" viewBox="0 0 47 32">
<path fill="#c5c5c5" style="fill: var(--color9, #c5c5c5)" d="M44.566 3.083c-1.261-2.246-2.623-2.659-5.422-2.816s-9.796-0.267-15.866-0.267-13.093 0.079-15.878 0.265-4.156 0.57-5.429 2.818-1.97 6.107-1.97 12.907v0.024c0 6.772 0.67 10.664 1.97 12.876s2.644 2.661 5.422 2.849 9.798 0.26 15.881 0.26 13.079-0.095 15.869-0.255 4.161-0.596 5.422-2.842c1.311-2.22 1.974-6.111 1.974-12.876v-0.024c0.005-6.813-0.658-10.675-1.972-12.919zM17.455 24.727v-17.455l14.545 8.727z"></path>
</symbol>
<symbol id="icon-care" viewBox="0 0 14 32">
<path d="M3.733 32h6.933c2.061-0.002 3.731-1.673 3.733-3.733v-10.667c0-0.295-0.239-0.534-0.534-0.534h-1.6v-16.533c0-0.294-0.239-0.533-0.533-0.533h-4.8c-0.295 0-0.534 0.239-0.534 0.533v0 16.533h-1.066v-8.533c0-0.071-0.014-0.139-0.039-0.202l0.001 0.004-1.067-2.667c-0.081-0.198-0.272-0.336-0.496-0.336s-0.415 0.137-0.494 0.332l-0.001 0.004-1.067 2.667c-0.024 0.059-0.038 0.127-0.038 0.198v0 8.533h-1.6c-0 0-0 0-0 0-0.295 0-0.533 0.239-0.533 0.534v0 10.666c0.002 2.061 1.673 3.731 3.733 3.734h0zM7.466 1.067h3.733v1.067h-2.666v1.067h2.666v1.067h-1.6v1.067h1.6v1.067h-2.666v1.066h2.666v1.066h-1.6v1.067h1.6v1.066h-2.666v1.066h2.666l0.422 0.366-2.022 0.701v1.066h1.6v1.066h-2.666v1.067h2.666v1.066h-3.733zM4.266 10.446l-1.067 1.065v-1.377h1.067zM3.2 13.021l1.067-1.066v1.692l-1.067 1.065zM3.2 8.636l0.534-1.333 0.534 1.333v0.43h-1.067zM3.2 16.221l1.067-1.066v1.91h-1.067zM1.067 18.131h12.267v10.135c-0.002 1.472-1.195 2.665-2.666 2.666h-6.934c-1.472-0.002-2.665-1.195-2.667-2.666v-0z"></path>
<path d="M4.266 29.333h5.833c0.004 0 0.009 0 0.014 0 0.887 0 1.608-0.714 1.619-1.599v-6.934c0-0.294-0.239-0.533-0.533-0.534h-8c-0.295 0-0.534 0.239-0.534 0.534v0 6.933c0 0.884 0.716 1.6 1.6 1.6v0zM3.733 27.733v-1.067h1.6v1.6h-1.066c-0.295 0-0.534-0.239-0.534-0.534v0zM8 24v1.6h-1.6v-1.6zM6.4 22.933v-1.6h1.6v1.6zM9.066 24h1.6v1.6h-1.6zM5.333 25.6h-1.6v-1.6h1.6zM6.4 26.666h1.6v1.6h-1.6zM10.1 28.267h-1.033v-1.6h1.6v1.067c-0.017 0.298-0.263 0.534-0.564 0.534-0.001 0-0.002 0-0.003 0h0zM10.666 22.933h-1.6v-1.6h1.6zM5.333 21.333v1.6h-1.6v-1.6z"></path>
</symbol>
<symbol id="icon-Group-25" viewBox="0 0 39 32">
<path fill="#c5c5c5" style="fill: var(--color9, #c5c5c5)" d="M39.394 3.785c-1.351 0.617-2.919 1.067-4.563 1.27l-0.078 0.008c1.67-1.013 2.926-2.566 3.537-4.413l0.016-0.057c-1.478 0.891-3.198 1.572-5.030 1.945l-0.105 0.018c-1.479-1.565-3.568-2.54-5.886-2.54-4.468 0-8.090 3.622-8.090 8.090 0 0.643 0.075 1.269 0.217 1.869l-0.011-0.055c-6.732-0.347-12.653-3.545-16.624-8.4l-0.032-0.041c-0.686 1.163-1.091 2.563-1.091 4.058 0 2.791 1.414 5.253 3.564 6.707l0.029 0.018c-1.35-0.046-2.604-0.416-3.7-1.034l0.040 0.021v0.1c0 3.898 2.757 7.152 6.428 7.919l0.053 0.009c-0.638 0.179-1.371 0.283-2.129 0.283h-0c-0.539-0-1.065-0.055-1.572-0.16l0.050 0.009c1.063 3.235 4.027 5.543 7.539 5.612l0.008 0c-2.727 2.154-6.214 3.455-10.005 3.455-0.011 0-0.021 0-0.032-0h0.002c-0.68-0.001-1.351-0.041-2.010-0.118l0.081 0.008c3.494 2.28 7.771 3.636 12.366 3.636 0.007 0 0.014 0 0.022 0h-0.001c0.048 0 0.104 0.001 0.16 0.001 12.61 0 22.833-10.223 22.833-22.833 0-0.056-0-0.113-0.001-0.169l0 0.009-0.028-1.045c1.597-1.15 2.94-2.535 4.008-4.12l0.036-0.057z"></path>
</symbol>
<symbol id="icon-home-cart" viewBox="0 0 38 32">
<path fill="#fff" style="fill: var(--color2, #fff)" d="M1.586 3.17h2.647l3.969 17.907c-1.93 0.937-3.237 2.882-3.237 5.133 0 0.045 0.001 0.090 0.002 0.135l-0-0.007c-0.004 0.076-0.006 0.164-0.006 0.253 0 2.89 2.263 5.252 5.114 5.409l0.014 0.001h21.017c0.016 0.001 0.034 0.001 0.052 0.001 0.876 0 1.586-0.71 1.586-1.586s-0.71-1.586-1.586-1.586c-0.018 0-0.037 0-0.055 0.001l0.003-0h-21.019c-1.12-0.169-1.969-1.125-1.969-2.279 0-0.075 0.004-0.149 0.011-0.222l-0.001 0.009c-0.006-0.065-0.010-0.14-0.010-0.216 0-1.151 0.845-2.105 1.948-2.276l0.013-0.002h21.028c0 0 0 0 0.001 0 0.683 0 1.265-0.432 1.488-1.037l0.004-0.011 5.361-14.856c0.059-0.16 0.093-0.344 0.093-0.536 0-0.876-0.71-1.586-1.586-1.586h-28.4l-1.013-4.576c-0.162-0.716-0.793-1.243-1.547-1.243-0 0-0.001 0-0.001 0h-3.92c-0.853 0.029-1.533 0.728-1.533 1.585s0.68 1.556 1.531 1.585l0.003 0zM34.203 8.992l-4.211 11.686h-18.635l-2.594-11.686h25.439z"></path>
</symbol>
<symbol id="icon-instagram-1" viewBox="0 0 32 32">
<path fill="#c5c5c5" style="fill: var(--color9, #c5c5c5)" d="M22.468 0h-12.935c-5.262 0.006-9.526 4.27-9.532 9.532v12.934c0.005 5.263 4.27 9.528 9.532 9.534h12.934c5.263-0.005 9.528-4.27 9.534-9.532v-12.936c-0.006-5.262-4.27-9.526-9.532-9.532h-0.001zM28.782 22.468c0 3.487-2.827 6.314-6.314 6.314v0h-12.935c-3.487 0-6.314-2.827-6.314-6.314v0-12.935c0-3.487 2.827-6.314 6.314-6.314v0h12.934c0.001 0 0.001 0 0.002 0 3.487 0 6.314 2.827 6.314 6.314v0 12.934z"></path>
<path fill="#c5c5c5" style="fill: var(--color9, #c5c5c5)" d="M16 7.724c-4.571 0-8.276 3.705-8.276 8.276s3.705 8.276 8.276 8.276c4.571 0 8.276-3.705 8.276-8.276v0c-0.005-4.569-3.707-8.271-8.276-8.276h-0zM16 21.058c-2.793 0-5.058-2.264-5.058-5.058s2.264-5.058 5.058-5.058c2.793 0 5.058 2.264 5.058 5.058v0c0 2.793-2.264 5.058-5.058 5.058v0z"></path>
<path fill="#c5c5c5" style="fill: var(--color9, #c5c5c5)" d="M26.277 7.786c0 1.096-0.888 1.984-1.984 1.984s-1.984-0.888-1.984-1.984c0-1.096 0.888-1.984 1.984-1.984s1.984 0.888 1.984 1.984z"></path>
</symbol>
<symbol id="icon-noun_Arrow-Left_26829371" viewBox="0 0 37 32">
<path fill="#fff" style="fill: var(--color2, #fff)" d="M20.822 0l15.996 16.008-2.658 2.66-13.339 13.332-2.658-2.641 11.452-11.471h-29.616v-3.757h29.616l-11.452-11.466z"></path>
</symbol>
<symbol id="icon-noun_avatar_2102861-21" viewBox="0 0 32 32">
<path fill="#fff" style="fill: var(--color2, #fff)" d="M28.874 23.281l-7.074-2.902c-0.371-0.15-0.629-0.506-0.632-0.923v-1.654c-0-0.002-0-0.005-0-0.008 0-0.22 0.076-0.422 0.202-0.582l-0.002 0.002c1.802-2.317 2.891-5.267 2.899-8.47v-0.002c0.002-5.229-3.321-8.743-8.268-8.743s-8.269 3.513-8.269 8.744c0.008 3.205 1.097 6.154 2.922 8.503l-0.024-0.032c0.125 0.158 0.2 0.36 0.2 0.58 0 0.002 0 0.005-0 0.007v-0 1.652c-0.003 0.417-0.261 0.773-0.625 0.921l-0.007 0.002-7.074 2.902c-1.848 0.763-3.124 2.55-3.124 4.636 0 0 0 0 0 0v0 2.752c0.001 0.736 0.598 1.332 1.334 1.332h29.332c0.737 0 1.334-0.597 1.334-1.334v0-2.75c-0.001-2.086-1.278-3.873-3.093-4.623l-0.033-0.012zM29.334 29.334h-26.668v-1.418c0.004-0.977 0.604-1.813 1.456-2.162l0.016-0.006 7.074-2.902c1.351-0.558 2.285-1.865 2.285-3.39v-1.654c0-0.001 0-0.003 0-0.004 0-0.855-0.297-1.641-0.794-2.26l0.005 0.007c-1.431-1.867-2.297-4.231-2.311-6.798v-0.003c0-4.48 2.893-6.077 5.603-6.077s5.603 1.597 5.603 6.077c-0.013 2.57-0.88 4.934-2.331 6.828l0.020-0.027c-0.491 0.612-0.788 1.398-0.788 2.253 0 0.001 0 0.003 0 0.004v-0 1.652c0 1.525 0.934 2.833 2.261 3.381l0.024 0.009 7.074 2.902c0.867 0.355 1.468 1.19 1.472 2.167v0z"></path>
</symbol>
<symbol id="icon-noun_cart_2102832-41" viewBox="0 0 32 32">
<path d="M1.334 2.666h2.227l3.338 15.062c-1.623 0.788-2.723 2.424-2.723 4.317 0 0.038 0 0.076 0.001 0.113l-0-0.006c-0.003 0.064-0.005 0.138-0.005 0.213 0 2.431 1.904 4.418 4.302 4.55l0.012 0.001h17.679c0.013 0 0.029 0.001 0.044 0.001 0.737 0 1.334-0.597 1.334-1.334s-0.597-1.334-1.334-1.334c-0.015 0-0.031 0-0.046 0.001l0.002-0h-17.68c-0.942-0.142-1.656-0.946-1.656-1.917 0-0.063 0.003-0.125 0.009-0.187l-0.001 0.008c-0.005-0.054-0.009-0.118-0.009-0.182 0-0.968 0.71-1.771 1.638-1.915l0.011-0.001h17.687c0 0 0 0 0 0 0.574 0 1.064-0.363 1.252-0.872l0.003-0.009 4.509-12.496c0.050-0.134 0.079-0.289 0.079-0.451 0-0.737-0.597-1.334-1.334-1.334h-23.888l-0.852-3.849c-0.136-0.603-0.667-1.046-1.301-1.046-0 0-0 0-0.001 0h-3.297c-0.717 0.024-1.29 0.612-1.29 1.333s0.572 1.309 1.288 1.333l0.002 0zM28.769 7.564l-3.542 9.83h-15.674l-2.182-9.83h21.398z"></path>
<path d="M9.562 29.334c-0.717 0.024-1.29 0.612-1.29 1.333s0.572 1.309 1.288 1.333l0.002 0h1.693c0.013 0 0.029 0.001 0.044 0.001 0.737 0 1.334-0.597 1.334-1.334s-0.597-1.334-1.334-1.334c-0.015 0-0.031 0-0.046 0.001l0.002-0z"></path>
<path d="M21.863 29.334c-0.717 0.024-1.29 0.612-1.29 1.333s0.572 1.309 1.288 1.333l0.002 0h1.693c0.013 0 0.029 0.001 0.044 0.001 0.737 0 1.334-0.597 1.334-1.334s-0.597-1.334-1.334-1.334c-0.015 0-0.031 0-0.046 0.001l0.002-0z"></path>
</symbol>
<symbol id="icon-noun_cloth_2129414" viewBox="0 0 42 32">
<path d="M19.729 31.999c-0.012 0-0.026 0.001-0.040 0.001-0.522 0-0.968-0.326-1.146-0.785l-0.003-0.008-2.98-7.822h-13.1c-1.358 0-2.459-1.101-2.459-2.459 0-0.001 0-0.001 0-0.002v0-18.462c0-0 0-0.001 0-0.001 0-1.359 1.101-2.46 2.46-2.46 0.003 0 0.006 0 0.009 0h17.227c0 0 0 0 0 0 0.489 0 0.912 0.286 1.11 0.699l0.003 0.007 3.721 7.908h14.859c1.358 0 2.459 1.101 2.459 2.459 0 0.001 0 0.001 0 0.002v-0 18.461c0 0 0 0.001 0 0.001 0 1.359-1.102 2.46-2.46 2.46-0.003 0-0.006 0-0.009 0h0zM18.911 2.461h-16.442s0 6.154 0 18.461h25.137zM25.685 11.076l4.966 10.552c0.074 0.153 0.117 0.333 0.117 0.524 0 0.369-0.162 0.7-0.419 0.925l-0.001 0.001-7.381 6.458h16.413s0-6.154 0-18.461zM20.212 28.677l6.050-5.294h-8.068z"></path>
</symbol>
<symbol id="icon-noun_delivery_166" viewBox="0 0 38 32">
<path fill="#fff" style="fill: var(--color2, #fff)" d="M36.803 0h-24.023c-0.883 0-1.6 0.716-1.6 1.6v0 7.982h-4.783c-0.001 0-0.002 0-0.003 0-0.552 0-1.038 0.28-1.324 0.706l-0.004 0.006-4.799 7.23c-0.168 0.249-0.269 0.557-0.269 0.888 0 0 0 0 0 0v-0 7.205c0 0.883 0.716 1.6 1.6 1.6v0h0.088c0.398 2.724 2.718 4.792 5.52 4.792s5.123-2.068 5.517-4.762l0.004-0.030h9.755c0.398 2.724 2.718 4.792 5.52 4.792s5.123-2.068 5.517-4.762l0.004-0.030h3.278c0.883 0 1.6-0.716 1.6-1.6v0-24.011c0-0.001 0-0.003 0-0.005 0-0.883-0.716-1.6-1.6-1.6 0 0 0 0 0 0v0zM3.199 18.887l4.087-6.084h3.918v9.685c-0.063-0.063-0.133-0.106-0.199-0.163-0.158-0.147-0.316-0.28-0.486-0.409l-0.339-0.226c-0.163-0.103-0.355-0.204-0.554-0.291l-0.029-0.011c-0.226-0.093-0.226-0.117-0.361-0.169-0.18-0.074-0.402-0.146-0.631-0.203l-0.036-0.008c-0.111-0.029-0.226-0.063-0.332-0.088-0.319-0.069-0.685-0.109-1.061-0.111h-0.001c-0.375 0.001-0.74 0.041-1.092 0.117l0.035-0.006c-0.126 0.017-0.241 0.048-0.349 0.092l0.010-0.003c-0.261 0.064-0.481 0.136-0.694 0.222l0.034-0.012c-0.129 0.052-0.251 0.111-0.373 0.176-0.214 0.101-0.391 0.2-0.562 0.31l0.019-0.012c-0.122 0.077-0.239 0.158-0.361 0.246-0.168 0.125-0.315 0.247-0.456 0.376l0.004-0.004c-0.14 0.129-0.151 0.117-0.226 0.188zM7.198 28.812c-1.324-0.004-2.395-1.076-2.399-2.399v-0c0.003-0.173 0.020-0.34 0.050-0.502l-0.003 0.018c0.227-1.108 1.194-1.93 2.353-1.93s2.126 0.822 2.35 1.915l0.003 0.015c0.029 0.147 0.047 0.316 0.047 0.49v0.001c-0.010 1.316-1.076 2.38-2.392 2.388h-0.001zM28.008 28.812c-0.004 0-0.010 0-0.015 0-1.329 0-2.406-1.077-2.406-2.406s1.077-2.406 2.406-2.406c1.147 0 2.107 0.803 2.348 1.877l0.003 0.016c0.031 0.146 0.049 0.315 0.052 0.488l0 0.002c0 0.005 0 0.012 0 0.018 0 1.323-1.067 2.396-2.387 2.406h-0.001zM33.064 24.007c-0.052-0.111-0.122-0.226-0.188-0.328s-0.088-0.176-0.14-0.258c-0.152-0.219-0.3-0.409-0.458-0.591l0.007 0.008c-0.024-0.027-0.047-0.058-0.068-0.089l-0.002-0.003c-0.194-0.209-0.4-0.399-0.619-0.574l-0.011-0.009-0.192-0.147c-0.153-0.121-0.325-0.239-0.505-0.345l-0.29-0.159c-0.144-0.084-0.316-0.169-0.493-0.243l-0.029-0.010c-0.077-0.035-0.175-0.072-0.276-0.105l-0.022-0.006c-0.154-0.056-0.349-0.112-0.548-0.156l-0.035-0.006-0.28-0.059c-0.272-0.052-0.584-0.082-0.904-0.082s-0.632 0.030-0.935 0.087l0.031-0.005-0.273 0.059c-0.235 0.051-0.43 0.107-0.62 0.174l0.037-0.011c-0.11 0.023-0.207 0.061-0.296 0.113l0.005-0.003c-0.221 0.091-0.399 0.178-0.572 0.273l0.030-0.015-0.251 0.133c-0.224 0.131-0.414 0.26-0.595 0.4l0.012-0.009-0.147 0.106c-0.454 0.387-0.841 0.834-1.154 1.332l-0.014 0.024-0.099 0.176c-0.070 0.129-0.151 0.251-0.21 0.38h-8.554v-20.86h20.803v4.805h-11.206c-0.883 0-1.6 0.716-1.6 1.6s0.716 1.6 1.6 1.6h11.204v12.799z"></path>
</symbol>
<symbol id="icon-noun_delivery_1665162" viewBox="0 0 38 32">
<path fill="#fbb03b" style="fill: var(--color8, #fbb03b)" d="M36.803 0h-24.023c-0.883 0-1.6 0.716-1.6 1.6v0 7.982h-4.783c-0.001 0-0.002 0-0.003 0-0.552 0-1.038 0.28-1.324 0.706l-0.004 0.006-4.799 7.23c-0.168 0.249-0.269 0.557-0.269 0.888 0 0 0 0 0 0v-0 7.205c0 0.883 0.716 1.6 1.6 1.6v0h0.088c0.398 2.724 2.718 4.792 5.52 4.792s5.123-2.068 5.517-4.762l0.004-0.030h9.755c0.398 2.724 2.718 4.792 5.52 4.792s5.123-2.068 5.517-4.762l0.004-0.030h3.278c0.883 0 1.6-0.716 1.6-1.6v0-24.011c0-0.001 0-0.003 0-0.005 0-0.883-0.716-1.6-1.6-1.6 0 0 0 0 0 0v0zM3.199 18.887l4.087-6.084h3.918v9.685c-0.063-0.063-0.133-0.106-0.199-0.163-0.158-0.147-0.316-0.28-0.486-0.409l-0.339-0.226c-0.163-0.103-0.355-0.204-0.554-0.291l-0.029-0.011c-0.226-0.093-0.226-0.117-0.361-0.169-0.18-0.074-0.402-0.146-0.631-0.203l-0.036-0.008c-0.111-0.029-0.226-0.063-0.332-0.088-0.319-0.069-0.685-0.109-1.061-0.111h-0.001c-0.375 0.001-0.74 0.041-1.092 0.117l0.035-0.006c-0.126 0.017-0.241 0.048-0.349 0.092l0.010-0.003c-0.261 0.064-0.481 0.136-0.694 0.222l0.034-0.012c-0.129 0.052-0.251 0.111-0.373 0.176-0.214 0.101-0.391 0.2-0.562 0.31l0.019-0.012c-0.122 0.077-0.239 0.158-0.361 0.246-0.168 0.125-0.315 0.247-0.456 0.376l0.004-0.004c-0.14 0.129-0.151 0.117-0.226 0.188zM7.198 28.812c-1.324-0.004-2.395-1.076-2.399-2.399v-0c0.003-0.173 0.020-0.34 0.050-0.502l-0.003 0.018c0.227-1.108 1.194-1.93 2.353-1.93s2.126 0.822 2.35 1.915l0.003 0.015c0.029 0.147 0.047 0.316 0.047 0.49v0.001c-0.010 1.316-1.076 2.38-2.392 2.388h-0.001zM28.008 28.812c-0.004 0-0.010 0-0.015 0-1.329 0-2.406-1.077-2.406-2.406s1.077-2.406 2.406-2.406c1.147 0 2.107 0.803 2.348 1.877l0.003 0.016c0.031 0.146 0.049 0.315 0.052 0.488l0 0.002c0 0.005 0 0.012 0 0.018 0 1.323-1.067 2.396-2.387 2.406h-0.001zM33.064 24.007c-0.052-0.111-0.122-0.226-0.188-0.328s-0.088-0.176-0.14-0.258c-0.152-0.219-0.3-0.409-0.458-0.591l0.007 0.008c-0.024-0.027-0.047-0.058-0.068-0.089l-0.002-0.003c-0.194-0.209-0.4-0.399-0.619-0.574l-0.011-0.009-0.192-0.147c-0.153-0.121-0.325-0.239-0.505-0.345l-0.29-0.159c-0.144-0.084-0.316-0.169-0.493-0.243l-0.029-0.010c-0.077-0.035-0.175-0.072-0.276-0.105l-0.022-0.006c-0.154-0.056-0.349-0.112-0.548-0.156l-0.035-0.006-0.28-0.059c-0.272-0.052-0.584-0.082-0.904-0.082s-0.632 0.030-0.935 0.087l0.031-0.005-0.273 0.059c-0.235 0.051-0.43 0.107-0.62 0.174l0.037-0.011c-0.11 0.023-0.207 0.061-0.296 0.113l0.005-0.003c-0.221 0.091-0.399 0.178-0.572 0.273l0.030-0.015-0.251 0.133c-0.224 0.131-0.414 0.26-0.595 0.4l0.012-0.009-0.147 0.106c-0.454 0.387-0.841 0.834-1.154 1.332l-0.014 0.024-0.099 0.176c-0.070 0.129-0.151 0.251-0.21 0.38h-8.554v-20.86h20.803v4.805h-11.206c-0.883 0-1.6 0.716-1.6 1.6s0.716 1.6 1.6 1.6h11.204v12.799z"></path>
</symbol>
<symbol id="icon-noun_delivery_2057282" viewBox="0 0 51 32">
<path d="M50.428 17.672l-9.218-7.579c-0.1-0.084-0.213-0.156-0.336-0.211l-0.009-0.004c-0.14-0.058-0.303-0.095-0.473-0.102l-0.003-0h-6.11v-8.338c0-0.794-0.644-1.438-1.438-1.438v0h-31.403c-0.794 0-1.438 0.644-1.438 1.438v0 24.934c0 0.794 0.644 1.438 1.438 1.438v0h4.773c0.705 2.437 2.916 4.189 5.536 4.189s4.832-1.752 5.526-4.149l0.010-0.041h17.686c0.705 2.437 2.916 4.189 5.536 4.189s4.832-1.752 5.526-4.149l0.010-0.041h3.479c0.794 0 1.438-0.644 1.438-1.438v0-7.593c-0.003-0.446-0.209-0.843-0.53-1.105l-0.003-0.002zM38.925 12.627v4.012h-4.643v-4.012zM2.97 2.862h28.433v22.057h-14.076c-0.071-0.25-0.145-0.455-0.229-0.654l0.014 0.037c0.001-0.009 0.002-0.020 0.002-0.031 0-0.083-0.033-0.157-0.087-0.212l0 0c-0.151-0.349-0.315-0.647-0.503-0.927l0.013 0.021-0.159-0.201c-0.159-0.218-0.32-0.41-0.492-0.591l0.002 0.002-0.283-0.243c-0.156-0.141-0.325-0.278-0.501-0.404l-0.017-0.012-0.331-0.215c-0.156-0.101-0.341-0.207-0.533-0.302l-0.033-0.015-0.36-0.159c-0.184-0.074-0.415-0.148-0.651-0.207l-0.040-0.008-0.331-0.085c-0.324-0.069-0.697-0.109-1.079-0.109s-0.754 0.040-1.114 0.115l0.035-0.006-0.331 0.085c-0.276 0.068-0.506 0.141-0.73 0.229l0.039-0.013-0.36 0.159c-0.234 0.109-0.427 0.215-0.613 0.331l0.024-0.014-0.317 0.215c-0.198 0.142-0.372 0.284-0.537 0.434l0.004-0.004-0.258 0.229c-0.186 0.196-0.361 0.407-0.52 0.631l-0.012 0.018-0.116 0.144c-0.18 0.264-0.349 0.566-0.489 0.883l-0.015 0.037c0 0.001 0 0.002 0 0.003 0 0.080-0.027 0.154-0.071 0.213l0.001-0.001c-0.071 0.166-0.144 0.376-0.205 0.591l-0.010 0.041h-3.247zM11.843 29.192c1.638-0.029 2.956-1.364 2.956-3.006 0-1.661-1.346-3.007-3.007-3.007s-3.007 1.346-3.007 3.007c0 1.643 1.317 2.978 2.953 3.006l0.003 0zM40.601 29.192c1.638-0.029 2.956-1.364 2.956-3.006 0-1.661-1.346-3.007-3.007-3.007s-3.007 1.346-3.007 3.007c0 1.643 1.317 2.978 2.953 3.006l0.003 0zM48.185 24.905h-2.101c-0.071-0.25-0.145-0.455-0.229-0.654l0.014 0.037c0.001-0.009 0.002-0.020 0.002-0.031 0-0.083-0.033-0.157-0.087-0.212l0 0c-0.151-0.349-0.315-0.647-0.503-0.927l0.013 0.021-0.159-0.201c-0.159-0.218-0.32-0.41-0.492-0.591l0.002 0.002-0.283-0.243c-0.156-0.141-0.325-0.278-0.501-0.404l-0.017-0.012-0.331-0.215c-0.156-0.101-0.341-0.207-0.533-0.302l-0.033-0.015-0.36-0.159c-0.184-0.074-0.415-0.148-0.651-0.207l-0.040-0.008-0.331-0.085c-0.324-0.069-0.697-0.109-1.079-0.109s-0.754 0.040-1.114 0.115l0.035-0.006-0.331 0.085c-0.276 0.068-0.506 0.141-0.73 0.229l0.039-0.013-0.36 0.159c-0.234 0.109-0.427 0.215-0.613 0.331l0.024-0.014-0.317 0.215c-0.198 0.142-0.372 0.284-0.537 0.434l0.004-0.004-0.258 0.229c-0.186 0.196-0.361 0.407-0.52 0.631l-0.012 0.018-0.116 0.144c-0.18 0.264-0.349 0.566-0.489 0.883l-0.015 0.037c0 0.001 0 0.002 0 0.003 0 0.080-0.027 0.154-0.071 0.213l0.001-0.001c-0.071 0.166-0.144 0.376-0.205 0.591l-0.010 0.041h-0.648v-5.379h6.025c0.794 0 1.438-0.644 1.438-1.438v0-3.842l6.342 5.221z"></path>
</symbol>
<symbol id="icon-noun_description_192324" viewBox="0 0 25 32">
<path d="M24.889 31.111v-25.778c-0.007-0.246-0.1-0.469-0.25-0.641l0.001 0.001-4.445-4.445c-0.171-0.149-0.394-0.242-0.639-0.249l-0.001-0h-18.666c-0.003-0-0.006-0-0.009-0-0.486 0-0.88 0.394-0.88 0.88 0 0.003 0 0.006 0 0.009v-0 30.222c-0 0.003-0 0.006-0 0.009 0 0.486 0.394 0.88 0.88 0.88 0.003 0 0.006 0 0.009-0h23.111c0.003 0 0.006 0 0.009 0 0.486 0 0.88-0.394 0.88-0.88 0-0.003 0-0.006-0-0.009v0zM19.555 2.134l3.2 3.2h-3.2zM23.111 30.222h-21.333v-28.445h16v4.445c0 0.498 0.889 0.889 0.889 0.889h4.445z"></path>
<path d="M18.667 14.222h-12.445c-0.491 0-0.889 0.398-0.889 0.889s0.398 0.889 0.889 0.889h12.445c0.491 0 0.889-0.398 0.889-0.889s-0.398-0.889-0.889-0.889v0z"></path>
<path d="M6.222 10.666c-0.491 0-0.889 0.398-0.889 0.889s0.398 0.889 0.889 0.889h12.445c0.491 0 0.889-0.398 0.889-0.889s-0.398-0.889-0.889-0.889v0z"></path>
<path d="M18.667 17.778h-12.445c-0.491 0-0.889 0.398-0.889 0.889s0.398 0.889 0.889 0.889h12.445c0.491 0 0.889-0.398 0.889-0.889s-0.398-0.889-0.889-0.889v0z"></path>
<path d="M18.667 21.334h-12.445c-0.491 0-0.889 0.398-0.889 0.889s0.398 0.889 0.889 0.889h12.445c0.491 0 0.889-0.398 0.889-0.889s-0.398-0.889-0.889-0.889v0z"></path>
<path d="M18.667 24.889h-12.445c-0.491 0-0.889 0.398-0.889 0.889s0.398 0.889 0.889 0.889h12.445c0.491 0 0.889-0.398 0.889-0.889s-0.398-0.889-0.889-0.889v0z"></path>
</symbol>
<symbol id="icon-noun_Fast-Delivery_1212438" viewBox="0 0 44 32">
<path d="M24.791 0h-20.886c-2.155 0.003-3.902 1.749-3.905 3.904v20.003c0.003 2.155 1.749 3.902 3.904 3.905h2.067c0.546 2.413 2.673 4.188 5.214 4.188s4.667-1.775 5.207-4.153l0.007-0.036h13.778c0.546 2.413 2.673 4.188 5.214 4.188s4.667-1.775 5.207-4.153l0.007-0.036h3.683v-11.517c0-0 0-0.001 0-0.001 0-1.147-0.311-2.221-0.852-3.143l0.016 0.029-2.298-3.974c-0.856-1.44-2.404-2.389-4.173-2.389-0.011 0-0.022 0-0.033 0h-8.268v-2.898c0-0.003 0-0.006 0-0.010 0-2.151-1.738-3.897-3.886-3.909h-0.001zM2.298 23.908v-20.003c0-0.889 0.72-1.609 1.609-1.609v0h20.884c0.889 0 1.609 0.72 1.609 1.609v0 21.597h-9.989c-0.546-2.413-2.673-4.188-5.214-4.188s-4.667 1.775-5.207 4.153l-0.007 0.036h-2.067c-0.001 0-0.003 0-0.005 0-0.883 0-1.601-0.712-1.609-1.594v-0.001zM11.19 29.712c-1.682 0-3.046-1.364-3.046-3.046s1.364-3.046 3.046-3.046c1.682 0 3.046 1.364 3.046 3.046 0 0.002 0 0.003 0 0.005v-0c-0.003 1.68-1.365 3.041-3.046 3.041 0 0 0 0 0 0v0zM35.4 29.712c-1.682 0-3.046-1.364-3.046-3.046s1.364-3.046 3.046-3.046c1.682 0 3.046 1.364 3.046 3.046v0c0 1.682-1.364 3.046-3.046 3.046v0zM40.616 25.517c-0.546-2.413-2.673-4.188-5.214-4.188s-4.667 1.775-5.207 4.153l-0.007 0.036h-1.493v-9.379h13.267v9.379zM36.95 9.113c0.001 0 0.003 0 0.004 0 0.924 0 1.733 0.495 2.177 1.233l0.006 0.011 2.022 3.484h-12.464v-4.731z"></path>
<path d="M14.475 20.207c0.001 0 0.002 0 0.002 0 4.265 0 7.723-3.458 7.723-7.723s-3.458-7.723-7.723-7.723c-4.265 0-7.722 3.456-7.723 7.721v0c0 0.001 0 0.002 0 0.002 0 4.265 3.456 7.722 7.721 7.723h0zM14.475 7.061c0.004 0 0.010-0 0.015-0 2.998 0 5.428 2.43 5.428 5.428s-2.43 5.428-5.428 5.428c-2.998 0-5.428-2.43-5.428-5.428 0-0.005 0-0.010 0-0.016v0.001c0.007-2.987 2.426-5.407 5.412-5.415h0.001z"></path>
<path d="M14.406 13.85h2.362c0.635 0 1.149-0.514 1.149-1.149s-0.514-1.149-1.149-1.149h-1.213v-1.892c0-0.635-0.514-1.149-1.149-1.149s-1.149 0.514-1.149 1.149v0 3.036c0 0.001 0 0.003 0 0.005 0 0.635 0.514 1.149 1.149 1.149 0 0 0 0 0 0v0z"></path>
</symbol>
<symbol id="icon-noun_guarantee_2519048" viewBox="0 0 30 32">
<path d="M29.506 4.128l-14.035-4.081c-0.096-0.030-0.206-0.047-0.32-0.047s-0.224 0.017-0.328 0.049l0.008-0.002-14.033 4.081c-0.465 0.144-0.798 0.571-0.798 1.075 0 0.001 0 0.002 0 0.003v-0 12.254c0 10.662 14.276 14.355 14.887 14.507 0.081 0.021 0.175 0.034 0.271 0.034 0.103 0 0.203-0.014 0.298-0.041l-0.008 0.002c0.876-0.22 14.865-3.936 14.865-14.502v-12.254c0 0 0-0 0-0 0-0.508-0.337-0.937-0.8-1.076l-0.008-0.002zM28.069 17.46c0 8.196-11.025 11.733-12.912 12.255-1.882-0.523-12.912-4.042-12.912-12.255v-11.406l12.912-3.761 12.912 3.756z"></path>
<path d="M14.033 8.983v1.177c-1.606 0.276-2.813 1.658-2.813 3.322 0 1.86 1.508 3.368 3.368 3.368 0.002 0 0.005 0 0.007 0h1.684c0.62 0 1.123 0.503 1.123 1.123s-0.503 1.123-1.123 1.123h-3.367c-0.62 0-1.123 0.503-1.123 1.123s0.503 1.123 1.123 1.123h1.122v1.123c0 0.62 0.503 1.123 1.123 1.123s1.123-0.503 1.123-1.123v0-1.13c1.86 0 3.368-1.508 3.368-3.368s-1.508-3.368-3.368-3.368h-1.683c-0.62 0-1.123-0.503-1.123-1.123s0.503-1.123 1.123-1.123h3.368c0.62 0 1.123-0.503 1.123-1.123s-0.503-1.123-1.123-1.123h-1.684v-1.124c0-0.62-0.503-1.123-1.123-1.123s-1.123 0.503-1.123 1.123v0z"></path>
</symbol>
<symbol id="icon-noun_Home_2102808" viewBox="0 0 32 32">
<path fill="#b2b2b2" style="fill: var(--color10, #b2b2b2)" d="M2.193 14.733l0.698-0.589v16.523c0 0.736 0.597 1.333 1.333 1.333v0h23.552c0.736 0 1.333-0.597 1.333-1.333v0-16.523l0.698 0.589c0.227 0.184 0.518 0.295 0.836 0.295 0.736 0 1.333-0.597 1.333-1.333 0-0.397-0.173-0.753-0.449-0.998l-0.001-0.001-6.4-5.404v-5.075c0-0.736-0.597-1.333-1.333-1.333s-1.333 0.597-1.333 1.333v0 2.825l-5.606-4.727c-0.23-0.195-0.531-0.314-0.86-0.314s-0.629 0.119-0.862 0.316l0.002-0.002-14.667 12.373c-0.304 0.246-0.497 0.62-0.497 1.039 0 0.736 0.597 1.333 1.333 1.333 0.339 0 0.649-0.127 0.885-0.336l-0.001 0.001zM13.013 29.333v-9.626h5.973v9.626zM16 3.078l10.443 8.815v17.44h-4.796v-10.959c0-0.736-0.597-1.333-1.333-1.333v0h-8.627c-0.736 0-1.333 0.597-1.333 1.333v0 10.959h-4.796v-17.44z"></path>
</symbol>
<symbol id="icon-noun_materials_308312" viewBox="0 0 32 32">
<path d="M10.097 20.685c0 0.526-0.427 0.953-0.953 0.953s-0.953-0.427-0.953-0.953c0-0.526 0.427-0.953 0.953-0.953s0.953 0.427 0.953 0.953z"></path>
<path d="M31.63 0h-21.359v10.642h-10.271v21.358h21.358v-10.642h10.272v-21.358zM29.968 4.551l-8.609 8.609v-2.517h-3.166l8.905-8.905-0.074-0.074h2.944v2.888zM19.695 21.304c-1.427-0.24-3.642-0.51-4.439 2.174-0.667 1.683-1.51 3.138-2.535 4.443l0.029-0.038c-0.553 0.713-1.058 1.517-1.48 2.371l-0.037 0.083h-2.633c-0-0.008-0-0.017-0-0.026 0-1.322 0.449-2.539 1.202-3.507l-0.010 0.013c0.361-0.407 0.774-0.756 1.23-1.042l0.024-0.014c1.546-0.897 2.621-2.459 2.834-4.285l0.003-0.027c0.080-0.432 0.126-0.928 0.126-1.436 0-1.185-0.25-2.312-0.701-3.33l0.021 0.053c-0.426-0.971-0.673-2.102-0.673-3.291 0-0.402 0.028-0.797 0.083-1.184l-0.005 0.044h2.435c0.068 0.34 0.127 0.691 0.185 1.062 0.349 2.101 0.783 4.715 3.575 6.151 0.156 0.080 0.258 0.136 0.322 0.174 0.121 0.126 0.27 0.225 0.436 0.288l0.008 0.003v1.322zM6.184 22.781c-0.026-0.234-0.040-0.505-0.040-0.78 0-0.622 0.074-1.226 0.215-1.805l-0.011 0.052c0.254-0.877 0.644-1.641 1.15-2.312l-0.013 0.018c1.153-1.558 1.846-3.518 1.846-5.64 0-0.004 0-0.008 0-0.012v0.001h1.732c-0.043 0.348-0.068 0.75-0.068 1.159 0 1.388 0.284 2.71 0.797 3.911l-0.025-0.065c0.366 0.799 0.579 1.734 0.579 2.718 0 0.412-0.037 0.815-0.109 1.206l0.006-0.041c-0.144 1.389-0.964 2.56-2.121 3.189l-0.022 0.011c-0.617 0.39-1.146 0.849-1.598 1.375l-0.008 0.009c-0.971 1.236-1.557 2.814-1.557 4.529 0 0.011 0 0.021 0 0.032v-0.002h-1.737c0.646-1.893 1.019-4.074 1.019-6.342 0-0.425-0.013-0.847-0.039-1.266l0.003 0.057zM19.695 18.041h-0.006c-2.049-1.054-2.363-2.945-2.695-4.946-0.043-0.261-0.092-0.526-0.138-0.79h2.839zM11.934 9.168l7.507-7.507h5.375l-8.979 8.979h-3.904zM17.091 1.662l-5.156 5.156v-5.156zM4.246 12.305c-0.445 1.66-0.974 3.085-1.619 4.445l0.067-0.158c-0.339 0.805-0.692 1.646-1.031 2.517v-6.805zM1.662 24.994c0.617-2.938 1.501-5.53 2.655-7.97l-0.092 0.216c0.689-1.41 1.276-3.056 1.675-4.773l0.031-0.16h1.735c0 0.002 0 0.005 0 0.008 0 1.78-0.589 3.423-1.584 4.743l0.015-0.020c-0.593 0.797-1.060 1.729-1.349 2.737l-0.015 0.061c-0.164 0.648-0.258 1.393-0.258 2.159 0 0.308 0.015 0.611 0.045 0.911l-0.003-0.038c0.019 0.323 0.030 0.7 0.030 1.079 0 2.29-0.397 4.488-1.126 6.527l0.042-0.135h-1.801v-5.346zM13.101 30.337c0.285-0.462 0.682-1.032 1.010-1.5 1.1-1.403 2.024-3.017 2.694-4.757l0.043-0.128c0.374-1.26 1.047-1.269 2.735-0.979l0.111 0.018v7.346zM21.358 15.51l8.609-8.609v5.604l-7.19 7.19h-1.419v-4.185zM25.128 19.695l4.839-4.839v4.839z"></path>
</symbol>
<symbol id="icon-noun_payment_2281176" viewBox="0 0 32 32">
<path fill="#fbb03b" style="fill: var(--color8, #fbb03b)" d="M2.656 29.207c-0.368-0.002-0.665-0.301-0.665-0.669 0-0.369 0.299-0.669 0.669-0.669s0.669 0.299 0.669 0.669c0 0.185-0.075 0.353-0.197 0.474l-0 0c-0.121 0.12-0.288 0.195-0.472 0.195-0.001 0-0.003 0-0.004 0h0z"></path>
<path fill="#fbb03b" style="fill: var(--color8, #fbb03b)" d="M6.187 32h-6.187v-1.602h4.586v-8.209h-4.586v-1.601h6.187z"></path>
<path fill="#fbb03b" style="fill: var(--color8, #fbb03b)" d="M15.687 30.366h-8.441v-8.125l0.093-0.177c0.527-0.913 1.293-1.637 2.212-2.099l0.030-0.014c0.88-0.433 1.915-0.686 3.009-0.686 0.966 0 1.886 0.197 2.722 0.553l-0.045-0.017c0.686 0.281 1.246 0.553 1.788 0.855l-0.085-0.043c0.454 0.237 0.882 0.464 1.325 0.649 0.156 0.060 0.347 0.117 0.543 0.161l0.029 0.005c0.839 0.084 1.552 0.561 1.958 1.242l0.006 0.012c0.164 0.407 0.259 0.879 0.259 1.373 0 0.129-0.006 0.256-0.019 0.382l0.001-0.016 4.033-0.058 2.092-2.319c0.402-0.446 0.982-0.725 1.627-0.725 1.208 0 2.188 0.98 2.188 2.188 0 0.564-0.213 1.077-0.563 1.465l0.002-0.002-3.154 3.516zM8.852 28.764h6.706l10.926-1.762 2.774-3.102c0.092-0.103 0.148-0.239 0.148-0.389 0-0.324-0.262-0.586-0.586-0.586-0.171 0-0.326 0.074-0.433 0.191l-0 0-2.559 2.834-9.914 0.15-0.023-1.601 3.587-0.053c0.014-0.099 0.021-0.214 0.021-0.331 0-0.282-0.046-0.553-0.13-0.807l0.005 0.018c-0.061-0.139-0.595-0.271-0.881-0.341-0.316-0.070-0.587-0.154-0.848-0.259l0.037 0.013c-0.505-0.213-0.983-0.464-1.446-0.707-0.412-0.233-0.918-0.48-1.439-0.699l-0.1-0.037c-0.619-0.271-1.34-0.428-2.098-0.428-0.826 0-1.608 0.187-2.306 0.521l0.032-0.014c-0.602 0.303-1.098 0.739-1.463 1.271l-0.008 0.013z"></path>
<path fill="#fbb03b" style="fill: var(--color8, #fbb03b)" d="M32 3.575v-1.703l-5.101-1.872-9.852 5.065h-8.503v11.921h19.52v-3.376c0.265 0.009 0.528 0.019 0.784 0.038 0.16 0.009 0.32 0.016 0.48 0.016 0.96-0.008 1.878-0.182 2.728-0.495l-0.056 0.018v-1.711l-0.022 0.009c-0.791 0.363-1.716 0.575-2.69 0.575-0.117 0-0.234-0.003-0.35-0.009l0.016 0.001c-0.291-0.019-0.585-0.032-0.889-0.042-0.512-0.013-1.040-0.009-1.6 0.009-0.771 0.026-1.597 0.086-2.499 0.179l-0.986 0.102c-0.038 0.006-0.083 0.009-0.128 0.009-0.517 0-0.936-0.419-0.936-0.936 0-0.472 0.349-0.862 0.803-0.927l0.005-0.001 3.731-0.649c0.001 0.001 0.003 0.001 0.005 0.001s0.003-0 0.005-0.001l-0 0c0.679-0.12 1.247-0.517 1.593-1.067l0.006-0.010c0.229-0.36 0.366-0.799 0.366-1.27 0-1.317-1.066-2.384-2.382-2.387h-5.504l6.465-3.318zM26.048 6.665c0.002-0 0.005-0 0.008-0 0.152 0 0.293 0.044 0.412 0.121l-0.003-0.002c0.223 0.142 0.369 0.388 0.369 0.667s-0.146 0.526-0.365 0.665l-0.003 0.002c-0.080 0.051-0.173 0.088-0.274 0.105l-0.005 0.001-3.731 0.649c-1.205 0.211-2.108 1.249-2.108 2.499 0 1.4 1.135 2.535 2.535 2.535 0.002 0 0.004 0 0.006 0h-0c0.003 0 0.007 0 0.011 0 0.086 0 0.172-0.005 0.256-0.014l-0.010 0.001s2.605-0.243 3.325-0.269v1.762h-16.325v-8.719z"></path>
<path fill="#fbb03b" style="fill: var(--color8, #fbb03b)" d="M17.608 10.225h1.6v1.6h-1.6v-1.6z"></path>
</symbol>
<symbol id="icon-noun_Search_2102816-21" viewBox="0 0 32 32">
<path fill="#fff" style="fill: var(--color2, #fff)" d="M11.818 23.641c0.003 0 0.006 0 0.009 0 2.791 0 5.355-0.969 7.375-2.59l-0.023 0.018 10.54 10.54c0.242 0.242 0.576 0.392 0.945 0.392 0.738 0 1.337-0.599 1.337-1.337 0-0.369-0.15-0.703-0.392-0.945l-10.54-10.54c1.606-2.002 2.577-4.573 2.577-7.37 0-6.532-5.295-11.827-11.827-11.827s-11.827 5.295-11.827 11.827c0 6.532 5.295 11.827 11.827 11.827 0.001 0 0.002 0 0.003 0h-0zM5.343 5.348c1.659-1.662 3.953-2.691 6.487-2.691 5.061 0 9.164 4.103 9.164 9.164s-4.103 9.164-9.164 9.164c-2.534 0-4.828-1.028-6.486-2.691l-0-0c-1.671-1.65-2.706-3.941-2.706-6.473s1.035-4.823 2.705-6.472l0.001-0.001z"></path>
</symbol>
<symbol id="icon-noun_Star_1822860" viewBox="0 0 34 32">
<path fill="#fbb03b" style="fill: var(--color8, #fbb03b)" d="M33.501 12.152c-0.136-0.419-0.473-0.701-1.491-0.796l-9.265-0.861c-0.496-0.004-0.916-0.324-1.070-0.768l-0.002-0.008-3.68-8.547c-0.405-0.936-0.776-1.171-1.219-1.171s-0.814 0.235-1.219 1.171l-3.68 8.547c-0.156 0.452-0.576 0.772-1.072 0.776h-0l-9.265 0.858c-1.021 0.095-1.362 0.378-1.491 0.796s-0.031 0.848 0.739 1.522l6.992 6.127c0.281 0.211 0.461 0.543 0.461 0.917 0 0.122-0.019 0.24-0.055 0.35l0.002-0.008-2.042 9.078c-0.225 0.994-0.061 1.406 0.296 1.665s0.796 0.289 1.675-0.231l8.003-4.765c0.184-0.132 0.414-0.212 0.662-0.212s0.478 0.079 0.665 0.214l-0.003-0.002 8.003 4.765c0.878 0.521 1.317 0.49 1.675 0.231s0.521-0.681 0.296-1.665l-2.042-9.078c-0.033-0.102-0.052-0.22-0.052-0.342 0-0.374 0.18-0.707 0.458-0.915l0.003-0.002 6.992-6.127c0.759-0.671 0.865-1.099 0.728-1.518z"></path>
</symbol>
<symbol id="icon-noun_Star_half" viewBox="0 0 32 32">
<path d="M32.475 12.162c-0.136-0.419-0.473-0.701-1.491-0.796l-9.265-0.861c-0.496-0.004-0.916-0.324-1.070-0.768l-0.002-0.008-3.68-8.547c-0.405-0.936-0.776-1.171-1.219-1.171s-0.814 0.235-1.219 1.171l-3.68 8.547c-0.156 0.452-0.576 0.772-1.072 0.776h-0l-9.265 0.858c-1.021 0.095-1.362 0.378-1.491 0.796s-0.031 0.848 0.739 1.522l6.992 6.127c0.281 0.211 0.461 0.543 0.461 0.917 0 0.122-0.019 0.24-0.055 0.35l0.002-0.008-2.042 9.078c-0.225 0.994-0.061 1.406 0.296 1.665s0.796 0.289 1.675-0.231l8.003-4.765c0.184-0.132 0.414-0.212 0.662-0.212s0.478 0.079 0.665 0.214l-0.003-0.002 8.003 4.765c0.878 0.521 1.317 0.49 1.675 0.231s0.521-0.681 0.296-1.665l-2.042-9.078c-0.033-0.102-0.052-0.22-0.052-0.342 0-0.374 0.18-0.707 0.458-0.915l0.003-0.002 6.992-6.127c0.759-0.671 0.865-1.099 0.728-1.518z"></path>
</symbol>
<symbol id="icon-outline" viewBox="0 0 14 32">
<path d="M3.733 32h6.933c2.061-0.002 3.731-1.673 3.733-3.733v-10.667c0-0.295-0.239-0.534-0.534-0.534h-1.6v-16.533c0-0.294-0.239-0.533-0.533-0.533h-4.8c-0.295 0-0.534 0.239-0.534 0.533v0 16.533h-1.066v-8.533c0-0.071-0.014-0.139-0.039-0.202l0.001 0.004-1.067-2.667c-0.081-0.198-0.272-0.336-0.496-0.336s-0.415 0.137-0.494 0.332l-0.001 0.004-1.067 2.667c-0.024 0.059-0.038 0.127-0.038 0.198v0 8.533h-1.6c-0 0-0 0-0 0-0.295 0-0.533 0.239-0.533 0.534v0 10.666c0.002 2.061 1.673 3.731 3.733 3.734h0zM7.466 1.067h3.733v1.067h-2.666v1.067h2.666v1.067h-1.6v1.067h1.6v1.067h-2.666v1.066h2.666v1.066h-1.6v1.067h1.6v1.066h-2.666v1.066h2.666v1.067h-1.6v1.066h1.6v1.066h-2.666v1.067h2.666v1.066h-3.733zM4.266 10.446l-1.067 1.065v-1.377h1.067zM3.2 13.021l1.067-1.066v1.692l-1.067 1.065zM3.2 8.636l0.534-1.333 0.534 1.333v0.43h-1.067zM3.2 16.221l1.067-1.066v1.91h-1.067zM1.067 18.131h12.267v10.135c-0.002 1.472-1.195 2.665-2.666 2.666h-6.934c-1.472-0.002-2.665-1.195-2.667-2.666v-0z"></path>
<path d="M4.266 29.333h5.833c0.004 0 0.009 0 0.014 0 0.887 0 1.608-0.714 1.619-1.599v-6.934c0-0.294-0.239-0.533-0.533-0.534h-8c-0.295 0-0.534 0.239-0.534 0.534v0 6.933c0 0.884 0.716 1.6 1.6 1.6v0zM3.733 27.733v-1.067h1.6v1.6h-1.066c-0.295 0-0.534-0.239-0.534-0.534v0zM8 24v1.6h-1.6v-1.6zM6.4 22.933v-1.6h1.6v1.6zM9.066 24h1.6v1.6h-1.6zM5.333 25.6h-1.6v-1.6h1.6zM6.4 26.666h1.6v1.6h-1.6zM10.1 28.267h-1.033v-1.6h1.6v1.067c-0.017 0.298-0.263 0.534-0.564 0.534-0.001 0-0.002 0-0.003 0h0zM10.666 22.933h-1.6v-1.6h1.6zM5.333 21.333v1.6h-1.6v-1.6z"></path>
</symbol>
<symbol id="icon-Path-3" viewBox="0 0 19 32">
<path fill="none" stroke="#b5b5b5" style="stroke: var(--color1, #b5b5b5)" stroke-linejoin="miter" stroke-linecap="butt" stroke-miterlimit="4" stroke-width="3.3" d="M1.119 1.214l15.738 14.5-15.117 15.117"></path>
</symbol>
<symbol id="icon-noun_cloth_21294141" viewBox="0 0 42 32">
<path d="M19.729 31.999c-0.012 0-0.026 0.001-0.040 0.001-0.522 0-0.968-0.326-1.146-0.785l-0.003-0.008-2.98-7.822h-13.1c-1.358 0-2.459-1.101-2.459-2.459 0-0.001 0-0.001 0-0.002v0-18.462c0-0 0-0.001 0-0.001 0-1.359 1.101-2.46 2.46-2.46 0.003 0 0.006 0 0.009 0h17.227c0 0 0 0 0 0 0.489 0 0.912 0.286 1.11 0.699l0.003 0.007 3.721 7.908h14.859c1.358 0 2.459 1.101 2.459 2.459 0 0.001 0 0.001 0 0.002v-0 18.461c0 0 0 0.001 0 0.001 0 1.359-1.102 2.46-2.46 2.46-0.003 0-0.006 0-0.009 0h0zM18.911 2.461h-16.442s0 6.154 0 18.461h25.137zM25.685 11.076l4.966 10.552c0.074 0.153 0.117 0.333 0.117 0.524 0 0.369-0.162 0.7-0.419 0.925l-0.001 0.001-7.381 6.458h16.413s0-6.154 0-18.461zM20.212 28.677l6.050-5.294h-8.068z"></path>
</symbol>
</defs>
</svg>
